<svg width="19" height="19" viewBox="0 0 19 19" fill="none" xmlns="http://www.w3.org/2000/svg">
<rect x="1.19824" y="1.25" width="16.5" height="16.5" rx="3.25" stroke="#00203F" stroke-width="1.5"/>
<path d="M15.447 5.49501C15.434 5.21009 15.3042 4.9523 15.1094 4.76235C14.9147 4.5724 14.655 4.47742 14.3823 4.50456C14.1097 4.51813 13.863 4.65381 13.6942 4.85732L8.50051 10.9628L6.12441 8.71057C5.92965 8.52062 5.66997 8.42565 5.3973 8.43922C5.12464 8.45279 4.87794 8.5749 4.70915 8.77841C4.52737 8.98193 4.43648 9.25328 4.44946 9.53821C4.46245 9.82313 4.5793 10.0809 4.77407 10.2573L7.90324 13.2286C8.08502 13.405 8.33172 13.5 8.57841 13.5H8.63035H8.64333C8.90302 13.4864 9.14972 13.3643 9.34448 13.1472L15.2133 6.24124C15.3691 6.03772 15.46 5.76636 15.447 5.49501Z" fill="#00203F"/>
</svg>
