<svg width="22" height="24" viewBox="0 0 22 24" fill="none" xmlns="http://www.w3.org/2000/svg">
<path d="M15.2189 11.048C15.7726 10.019 16.0182 8.81997 15.9073 7.60797C15.7432 5.82397 14.8302 4.24697 13.3379 3.16797L12.325 4.83397C13.3507 5.57597 13.975 6.63297 14.0831 7.80797C14.184 8.91297 13.8265 10.002 13.1005 10.794L12.0078 11.986L13.491 12.461C17.3703 13.701 17.4152 17.957 17.4152 18H19.2486C19.2486 16.211 18.3722 12.715 15.2189 11.048Z" fill="#373737"/>
<path d="M8.70703 12C10.7292 12 12.3737 10.206 12.3737 8C12.3737 5.794 10.7292 4 8.70703 4C6.68486 4 5.04036 5.794 5.04036 8C5.04036 10.206 6.68486 12 8.70703 12ZM8.70703 6C9.71811 6 10.5404 6.897 10.5404 8C10.5404 9.103 9.71811 10 8.70703 10C7.69595 10 6.8737 9.103 6.8737 8C6.8737 6.897 7.69595 6 8.70703 6ZM10.082 13H7.33203C4.29878 13 1.83203 15.691 1.83203 19V20H3.66536V19C3.66536 16.794 5.30986 15 7.33203 15H10.082C12.1042 15 13.7487 16.794 13.7487 19V20H15.582V19C15.582 15.691 13.1153 13 10.082 13Z" fill="#373737"/>
</svg>
