<svg width="20" height="20" viewBox="0 0 20 20" fill="none" xmlns="http://www.w3.org/2000/svg">
<g id="Attach file" clip-path="url(#clip0_4735_11149)">
<path id="Vector" d="M13.75 5.00065V14.584C13.75 16.4257 12.2583 17.9173 10.4167 17.9173C8.57501 17.9173 7.08334 16.4257 7.08334 14.584V4.16732C7.08334 3.01732 8.01668 2.08398 9.16668 2.08398C10.3167 2.08398 11.25 3.01732 11.25 4.16732V12.9173C11.25 13.3757 10.875 13.7507 10.4167 13.7507C9.95834 13.7507 9.58334 13.3757 9.58334 12.9173V5.00065H8.33334V12.9173C8.33334 14.0673 9.26668 15.0007 10.4167 15.0007C11.5667 15.0007 12.5 14.0673 12.5 12.9173V4.16732C12.5 2.32565 11.0083 0.833984 9.16668 0.833984C7.32501 0.833984 5.83334 2.32565 5.83334 4.16732V14.584C5.83334 17.1173 7.88334 19.1673 10.4167 19.1673C12.95 19.1673 15 17.1173 15 14.584V5.00065H13.75Z" fill="#868686"/>
</g>
<defs>
<clipPath id="clip0_4735_11149">
<rect width="20" height="20" fill="white"/>
</clipPath>
</defs>
</svg>
