<svg width="25" height="24" viewBox="0 0 25 24" fill="none" xmlns="http://www.w3.org/2000/svg">
<path d="M14.9521 5H6.95215C5.84915 5 4.95215 5.897 4.95215 7V9.822V12.352V23L10.9521 19.399L16.9521 23V12.353V10.823V7C16.9521 5.897 16.0551 5 14.9521 5ZM14.9521 19.467L10.9521 17.068L6.95215 19.467V12.353V9.823V7H14.9521V10.822V12.352V19.467Z" fill="#373737"/>
<path d="M18.9521 1H17.9521H15.9501H10.9521C9.84915 1 8.95215 1.897 8.95215 3H10.9521H15.5381H16.9521C18.0551 3 18.9521 3.897 18.9521 5V6.414V6.822V8.352V14.399V15.443L20.9521 17.932V8.352V6.822V6V4V3C20.9521 1.897 20.0551 1 18.9521 1Z" fill="#373737"/>
</svg>
