<svg width="25" height="24" viewBox="0 0 25 24" fill="none" xmlns="http://www.w3.org/2000/svg">
<path d="M20.9521 6H17.9521V4C17.9521 2.897 17.0551 2 15.9521 2H9.95215C8.84915 2 7.95215 2.897 7.95215 4V6H4.95215C3.84915 6 2.95215 6.897 2.95215 8V19C2.95215 20.103 3.84915 21 4.95215 21H20.9521C22.0551 21 22.9521 20.103 22.9521 19V8C22.9521 6.897 22.0551 6 20.9521 6ZM16.9521 8V19H8.95215V8H16.9521ZM15.9521 4V6H9.95215V4H15.9521ZM4.95215 8H6.95215V19H4.95215V8ZM18.9521 19V8H20.9521L20.9531 19H18.9521Z" fill="#373737"/>
</svg>
