<svg width="25" height="24" viewBox="0 0 25 24" fill="none" xmlns="http://www.w3.org/2000/svg">
<path d="M19.9521 13.586V10C19.9521 6.783 17.7671 4.073 14.8071 3.258C14.5141 2.52 13.7981 2 12.9521 2C12.1061 2 11.3901 2.52 11.0971 3.258C8.13715 4.074 5.95215 6.783 5.95215 10V13.586L4.24515 15.293C4.05715 15.48 3.95215 15.734 3.95215 16V18C3.95215 18.553 4.39915 19 4.95215 19H20.9521C21.5051 19 21.9521 18.553 21.9521 18V16C21.9521 15.734 21.8471 15.48 21.6591 15.293L19.9521 13.586ZM19.9521 17H5.95215V16.414L7.65915 14.707C7.84715 14.52 7.95215 14.266 7.95215 14V10C7.95215 7.243 10.1951 5 12.9521 5C15.7091 5 17.9521 7.243 17.9521 10V14C17.9521 14.266 18.0571 14.52 18.2451 14.707L19.9521 16.414V17ZM12.9521 22C14.2631 22 15.3591 21.166 15.7701 20H10.1341C10.5451 21.166 11.6411 22 12.9521 22Z" fill="#373737"/>
</svg>
