<svg width="20" height="20" viewBox="0 0 20 20" fill="none" xmlns="http://www.w3.org/2000/svg">
<g id="icons / bx-briefcase-alt">
<path id="Vector" d="M16.6667 4.99935H14.1667V3.33268C14.1667 2.41352 13.4192 1.66602 12.5 1.66602H7.50002C6.58085 1.66602 5.83335 2.41352 5.83335 3.33268V4.99935H3.33335C2.41419 4.99935 1.66669 5.74685 1.66669 6.66602V15.8327C1.66669 16.7518 2.41419 17.4993 3.33335 17.4993H16.6667C17.5859 17.4993 18.3334 16.7518 18.3334 15.8327V6.66602C18.3334 5.74685 17.5859 4.99935 16.6667 4.99935ZM13.3334 6.66602V15.8327H6.66669V6.66602H13.3334ZM12.5 3.33268V4.99935H7.50002V3.33268H12.5ZM3.33335 6.66602H5.00002V15.8327H3.33335V6.66602ZM15 15.8327V6.66602H16.6667L16.6675 15.8327H15Z" fill="#FFC800"/>
</g>
</svg>
