<svg width="25" height="24" viewBox="0 0 25 24" fill="none" xmlns="http://www.w3.org/2000/svg">
<path d="M20.9521 6H17.9521V4C17.9521 2.897 17.0551 2 15.9521 2H9.95215C8.84915 2 7.95215 2.897 7.95215 4V6H4.95215C3.84915 6 2.95215 6.897 2.95215 8V19C2.95215 20.103 3.84915 21 4.95215 21H20.9521C22.0551 21 22.9521 20.103 22.9521 19V8C22.9521 6.897 22.0551 6 20.9521 6ZM15.9521 4V6H9.95215V4H15.9521ZM4.95215 8H8.95215H16.9521H17.9521H20.9521V12H17.9521V10H15.9521V12H9.95215V10H7.95215V12H4.95215V8ZM4.95215 19V14H7.95215V16H9.95215V14H15.9521V16H17.9521V14H20.9531V19H4.95215Z" fill="#373737"/>
</svg>
