<svg width="25" height="24" viewBox="0 0 25 24" fill="none" xmlns="http://www.w3.org/2000/svg">
<path d="M20.9521 4H4.95215C3.84915 4 2.95215 4.897 2.95215 6V18C2.95215 19.103 3.84915 20 4.95215 20H20.9521C22.0551 20 22.9521 19.103 22.9521 18V6C22.9521 4.897 22.0551 4 20.9521 4ZM4.95215 18V6H20.9521L20.9531 18H4.95215Z" fill="#373737"/>
<path d="M7.45215 11H10.4521C10.7281 11 10.9521 10.776 10.9521 10.5V8.5C10.9521 8.224 10.7281 8 10.4521 8H7.45215C7.17615 8 6.95215 8.224 6.95215 8.5V10.5C6.95215 10.776 7.17615 11 7.45215 11ZM6.95215 14H12.9521V16.001H6.95215V14ZM13.9521 14H18.9521V16.001H13.9521V14Z" fill="#373737"/>
</svg>
