<svg width="25" height="24" viewBox="0 0 25 24" fill="none" xmlns="http://www.w3.org/2000/svg">
<path d="M12.9521 8C10.7841 8 8.95215 9.832 8.95215 12C8.95215 14.168 10.7841 16 12.9521 16C15.1201 16 16.9521 14.168 16.9521 12C16.9521 9.832 15.1201 8 12.9521 8ZM12.9521 14C11.8871 14 10.9521 13.065 10.9521 12C10.9521 10.935 11.8871 10 12.9521 10C14.0171 10 14.9521 10.935 14.9521 12C14.9521 13.065 14.0171 14 12.9521 14Z" fill="#373737"/>
<path d="M20.9521 5H18.3661L15.6591 2.293C15.4721 2.105 15.2181 2 14.9521 2H10.9521C10.6861 2 10.4321 2.105 10.2451 2.293L7.53815 5H4.95215C3.84915 5 2.95215 5.897 2.95215 7V18C2.95215 19.103 3.84915 20 4.95215 20H20.9521C22.0551 20 22.9521 19.103 22.9521 18V7C22.9521 5.897 22.0551 5 20.9521 5ZM4.95215 18V7H7.95215C8.21815 7 8.47215 6.895 8.65915 6.707L11.3661 4H14.5381L17.2451 6.707C17.4321 6.895 17.6861 7 17.9521 7H20.9521L20.9541 18H4.95215Z" fill="#373737"/>
</svg>
