<svg width="25" height="24" viewBox="0 0 25 24" fill="none" xmlns="http://www.w3.org/2000/svg">
<path d="M7.95215 11H9.95215V13H7.95215V11ZM7.95215 15H9.95215V17H7.95215V15ZM11.9521 11H13.9521V13H11.9521V11ZM11.9521 15H13.9521V17H11.9521V15ZM15.9521 11H17.9521V13H15.9521V11ZM15.9521 15H17.9521V17H15.9521V15Z" fill="#373737"/>
<path d="M5.95215 22H19.9521C21.0551 22 21.9521 21.103 21.9521 20V8V6C21.9521 4.897 21.0551 4 19.9521 4H17.9521V2H15.9521V4H9.95215V2H7.95215V4H5.95215C4.84915 4 3.95215 4.897 3.95215 6V8V20C3.95215 21.103 4.84915 22 5.95215 22ZM19.9521 8L19.9531 20H5.95215V8H19.9521Z" fill="#373737"/>
</svg>
