<svg width="32" height="33" viewBox="0 0 32 33" fill="none" xmlns="http://www.w3.org/2000/svg">
<g id="icons / bx-chat">
<rect y="0.986328" width="32" height="32" rx="16" fill="#FFC800"/>
<g id="Chat Icon Container">
<path id="Vector" d="M10.6578 22.184V25.1968L11.8698 24.4696L15.6794 22.184H19.4578C20.3402 22.184 21.0578 21.4664 21.0578 20.584V14.184C21.0578 13.3016 20.3402 12.584 19.4578 12.584H9.85781C8.97541 12.584 8.25781 13.3016 8.25781 14.184V20.584C8.25781 21.4664 8.97541 22.184 9.85781 22.184H10.6578ZM9.85781 14.184H19.4578V20.584H15.2362L12.2578 22.3712V20.584H9.85781V14.184Z" fill="#00203F"/>
<path id="Vector_2" d="M22.6578 9.38477H21.8578H20.2562H13.0578C12.1754 9.38477 11.4578 10.1024 11.4578 10.9848H19.9266H21.0578C21.9402 10.9848 22.6578 11.7024 22.6578 12.5848V13.716V17.3848V18.9848C23.5402 18.9848 24.2578 18.2672 24.2578 17.3848V13.3848V11.7848V10.9848C24.2578 10.1024 23.5402 9.38477 22.6578 9.38477Z" fill="#00203F"/>
</g>
</g>
</svg>
