<svg width="25" height="24" viewBox="0 0 25 24" fill="none" xmlns="http://www.w3.org/2000/svg">
<path d="M12.9521 16C15.1581 16 16.9521 14.206 16.9521 12C16.9521 9.794 15.1581 8 12.9521 8C10.7461 8 8.95215 9.794 8.95215 12C8.95215 14.206 10.7461 16 12.9521 16ZM12.9521 10C14.0361 10 14.9521 10.916 14.9521 12C14.9521 13.084 14.0361 14 12.9521 14C11.8681 14 10.9521 13.084 10.9521 12C10.9521 10.916 11.8681 10 12.9521 10Z" fill="#373737"/>
<path d="M3.79835 16.136L4.79835 17.866C5.32935 18.783 6.60735 19.127 7.52835 18.596L8.05735 18.29C8.63935 18.747 9.27835 19.122 9.95335 19.402V20C9.95335 21.103 10.8504 22 11.9534 22H13.9534C15.0564 22 15.9534 21.103 15.9534 20V19.402C16.6284 19.122 17.2674 18.747 17.8494 18.291L18.3784 18.597C19.3014 19.127 20.5764 18.785 21.1094 17.866L22.1084 16.137C22.6604 15.182 22.3323 13.956 21.3773 13.405L20.8724 13.113C20.9264 12.742 20.9534 12.371 20.9534 12C20.9534 11.629 20.9264 11.257 20.8724 10.889L21.3773 10.597C22.3323 10.045 22.6604 8.82 22.1084 7.865L21.1094 6.136C20.5784 5.216 19.3014 4.871 18.3784 5.404L17.8494 5.71C17.2674 5.253 16.6284 4.878 15.9534 4.598V4C15.9534 2.897 15.0564 2 13.9534 2H11.9534C10.8504 2 9.95335 2.897 9.95335 4V4.598C9.27835 4.878 8.63935 5.253 8.05735 5.709L7.52835 5.403C6.60435 4.872 5.32835 5.216 4.79735 6.135L3.79835 7.864C3.24635 8.819 3.57435 10.045 4.52935 10.596L5.03435 10.888C4.98035 11.257 4.95335 11.629 4.95335 12C4.95335 12.371 4.98035 12.742 5.03435 13.111L4.52935 13.403C3.57435 13.955 3.24635 15.181 3.79835 16.136ZM7.12435 13.378C7.01135 12.925 6.95335 12.461 6.95335 12C6.95335 11.538 7.01135 11.074 7.12335 10.622C7.23135 10.189 7.04035 9.737 6.65335 9.514L5.53035 8.864L6.52835 7.135L7.67335 7.797C8.05735 8.018 8.54035 7.962 8.86135 7.655C9.54435 7.008 10.3684 6.524 11.2454 6.256C11.6664 6.128 11.9534 5.739 11.9534 5.3V4H13.9534V5.3C13.9534 5.739 14.2404 6.128 14.6614 6.256C15.5384 6.525 16.3624 7.008 17.0454 7.655C17.3664 7.962 17.8514 8.017 18.2334 7.797L19.3774 7.136L20.3773 8.865L19.2534 9.514C18.8664 9.738 18.6754 10.19 18.7834 10.622C18.8954 11.074 18.9534 11.538 18.9534 12C18.9534 12.461 18.8954 12.925 18.7824 13.378C18.6754 13.811 18.8664 14.263 19.2534 14.486L20.3764 15.135L19.3784 16.864L18.2334 16.203C17.8504 15.982 17.3664 16.037 17.0454 16.345C16.3624 16.992 15.5384 17.476 14.6614 17.744C14.2404 17.872 13.9534 18.261 13.9534 18.7L13.9554 20H11.9534V18.7C11.9534 18.261 11.6664 17.872 11.2454 17.744C10.3684 17.475 9.54435 16.992 8.86135 16.345C8.67135 16.163 8.42335 16.07 8.17335 16.07C8.00135 16.07 7.82935 16.114 7.67335 16.204L6.52935 16.866L5.52935 15.137L6.65335 14.486C7.04035 14.263 7.23135 13.811 7.12435 13.378Z" fill="#373737"/>
</svg>
