<svg width="25" height="24" viewBox="0 0 25 24" fill="none" xmlns="http://www.w3.org/2000/svg">
<path d="M12.9521 2C7.43815 2 2.95215 6.486 2.95215 12C2.95215 17.514 7.43815 22 12.9521 22C18.4661 22 22.9521 17.514 22.9521 12C22.9521 6.486 18.4661 2 12.9521 2ZM12.9521 20C8.54115 20 4.95215 16.411 4.95215 12C4.95215 7.589 8.54115 4 12.9521 4C17.3631 4 20.9521 7.589 20.9521 12C20.9521 16.411 17.3631 20 12.9521 20Z" fill="#373737"/>
<path d="M10.9522 13.587L8.65321 11.292L7.24121 12.708L10.9542 16.413L17.6602 9.70697L16.2462 8.29297L10.9522 13.587Z" fill="#373737"/>
</svg>
