<svg width="25" height="24" viewBox="0 0 25 24" fill="none" xmlns="http://www.w3.org/2000/svg">
<path d="M20.9521 2H10.9521C9.84915 2 8.95215 2.897 8.95215 4V8H4.95215C3.84915 8 2.95215 8.897 2.95215 10V20C2.95215 21.103 3.84915 22 4.95215 22H14.9521C16.0551 22 16.9521 21.103 16.9521 20V16H20.9521C22.0551 16 22.9521 15.103 22.9521 14V4C22.9521 2.897 22.0551 2 20.9521 2ZM4.95215 20V10H14.9521L14.9541 20H4.95215ZM20.9521 14H16.9521V10C16.9521 8.897 16.0551 8 14.9521 8H10.9521V4H20.9521V14Z" fill="#373737"/>
<path d="M6.95215 12H12.9521V14H6.95215V12ZM6.95215 16H12.9521V18H6.95215V16Z" fill="#373737"/>
</svg>
