<svg width="25" height="24" viewBox="0 0 25 24" fill="none" xmlns="http://www.w3.org/2000/svg">
<path d="M16.4521 16C17.8329 16 18.9521 14.8807 18.9521 13.5C18.9521 12.1193 17.8329 11 16.4521 11C15.0714 11 13.9521 12.1193 13.9521 13.5C13.9521 14.8807 15.0714 16 16.4521 16Z" fill="#373737"/>
<path d="M12.9521 13.5C12.9521 12.685 13.3481 11.968 13.9521 11.512C13.5331 11.194 13.0171 11 12.4521 11C11.0711 11 9.95215 12.119 9.95215 13.5C9.95215 14.881 11.0711 16 12.4521 16C13.0171 16 13.5331 15.806 13.9521 15.488C13.3481 15.032 12.9521 14.315 12.9521 13.5Z" fill="#373737"/>
<path d="M20.9521 4H4.95215C3.84915 4 2.95215 4.897 2.95215 6V18C2.95215 19.103 3.84915 20 4.95215 20H20.9521C22.0551 20 22.9521 19.103 22.9521 18V6C22.9521 4.897 22.0551 4 20.9521 4ZM4.95215 18V6H20.9521L20.9541 18H4.95215Z" fill="#373737"/>
</svg>
