<svg width="25" height="24" viewBox="0 0 25 24" fill="none" xmlns="http://www.w3.org/2000/svg">
<path d="M12.9521 10C11.8521 10 10.9521 10.9 10.9521 12C10.9521 13.1 11.8521 14 12.9521 14C14.0521 14 14.9521 13.1 14.9521 12C14.9521 10.9 14.0521 10 12.9521 10ZM12.9521 4C11.8521 4 10.9521 4.9 10.9521 6C10.9521 7.1 11.8521 8 12.9521 8C14.0521 8 14.9521 7.1 14.9521 6C14.9521 4.9 14.0521 4 12.9521 4ZM12.9521 16C11.8521 16 10.9521 16.9 10.9521 18C10.9521 19.1 11.8521 20 12.9521 20C14.0521 20 14.9521 19.1 14.9521 18C14.9521 16.9 14.0521 16 12.9521 16Z" fill="#373737"/>
</svg>
