<svg width="25" height="24" viewBox="0 0 25 24" fill="none" xmlns="http://www.w3.org/2000/svg">
<path d="M12.9521 2C7.43815 2 2.95215 6.486 2.95215 12C2.95215 17.514 7.43815 22 12.9521 22C18.4661 22 22.9521 17.514 22.9521 12C22.9521 6.486 18.4661 2 12.9521 2ZM12.9521 20C8.54115 20 4.95215 16.411 4.95215 12C4.95215 7.589 8.54115 4 12.9521 4C17.3631 4 20.9521 7.589 20.9521 12C20.9521 16.411 17.3631 20 12.9521 20Z" fill="#373737"/>
<path d="M12.9521 10.9997C10.9521 10.9997 10.9521 10.3737 10.9521 9.99972C10.9521 9.51572 11.6531 8.99972 12.9521 8.99972C14.1371 8.99972 14.3381 9.63772 14.3521 10.0177L15.3521 9.99972H16.3521C16.3521 8.97372 15.6861 7.53072 13.9521 7.12072V6.01172H11.9521V7.08472C9.98115 7.41572 8.95215 8.71172 8.95215 9.99972C8.95215 11.1197 9.47215 12.9997 12.9521 12.9997C14.9521 12.9997 14.9521 13.6757 14.9521 13.9997C14.9521 14.4147 14.3321 14.9997 12.9521 14.9997C11.1111 14.9997 10.9631 14.1427 10.9521 13.9997H8.95215C8.95215 14.9177 9.61315 16.5527 11.9521 16.9197V17.9997H13.9521V16.9147C15.9231 16.5837 16.9521 15.2877 16.9521 13.9997C16.9521 12.8797 16.4321 10.9997 12.9521 10.9997Z" fill="#373737"/>
</svg>
