<svg width="25" height="24" viewBox="0 0 25 24" fill="none" xmlns="http://www.w3.org/2000/svg">
<path d="M11.9531 10H13.9531V15H11.9531V10ZM11.9521 16H13.9521V18H11.9521V16Z" fill="#373737"/>
<path d="M14.721 4.1997C14.373 3.5447 13.695 3.1377 12.953 3.1377C12.211 3.1377 11.533 3.5447 11.185 4.2007L3.84704 18.0637C3.51604 18.6897 3.53604 19.4247 3.90104 20.0317C4.26604 20.6377 4.90604 20.9997 5.61404 20.9997H20.292C21 20.9997 21.641 20.6377 22.006 20.0317C22.37 19.4257 22.391 18.6897 22.06 18.0637L14.721 4.1997ZM5.61404 18.9997L12.953 5.1367L20.297 18.9997H5.61404Z" fill="#373737"/>
</svg>
