<svg width="24" height="24" viewBox="0 0 24 24" fill="none" xmlns="http://www.w3.org/2000/svg">
<g id="icons / bx-home-alt">
<path id="Vector" d="M5.00391 22.0002H9.00391H15.0039H19.0039C20.1069 22.0002 21.0039 21.1033 21.0039 20.0002V11.0002C21.0039 10.7352 20.8989 10.4803 20.7109 10.2933L12.7109 2.29325C12.3199 1.90225 11.6879 1.90225 11.2969 2.29325L3.29691 10.2933C3.10891 10.4803 3.00391 10.7352 3.00391 11.0002V20.0002C3.00391 21.1033 3.90091 22.0002 5.00391 22.0002ZM10.0039 20.0002V15.0002H14.0039V20.0002H10.0039ZM5.00391 11.4142L12.0039 4.41425L19.0039 11.4142L19.0049 20.0002H16.0039V15.0002C16.0039 13.8973 15.1069 13.0002 14.0039 13.0002H10.0039C8.90091 13.0002 8.00391 13.8973 8.00391 15.0002V20.0002H5.00391V11.4142Z" fill="white"/>
</g>
</svg>
