<svg width="25" height="24" viewBox="0 0 25 24" fill="none" xmlns="http://www.w3.org/2000/svg">
<path d="M12.9521 2C7.43815 2 2.95215 6.486 2.95215 12C2.95215 17.514 7.43815 22 12.9521 22C18.4661 22 22.9521 17.514 22.9521 12C22.9521 6.486 18.4661 2 12.9521 2ZM12.9521 20C8.54115 20 4.95215 16.411 4.95215 12C4.95215 7.589 8.54115 4 12.9521 4C17.3631 4 20.9521 7.589 20.9521 12C20.9521 16.411 17.3631 20 12.9521 20Z" fill="#373737"/>
<path d="M9.45215 11C10.2806 11 10.9521 10.3284 10.9521 9.5C10.9521 8.67157 10.2806 8 9.45215 8C8.62372 8 7.95215 8.67157 7.95215 9.5C7.95215 10.3284 8.62372 11 9.45215 11Z" fill="#373737"/>
<path d="M16.4451 10.986C17.2697 10.986 17.9381 10.3176 17.9381 9.493C17.9381 8.66844 17.2697 8 16.4451 8C15.6206 8 14.9521 8.66844 14.9521 9.493C14.9521 10.3176 15.6206 10.986 16.4451 10.986Z" fill="#373737"/>
<path d="M12.9521 18C17.9521 18 18.9521 13 18.9521 13H6.95215C6.95215 13 7.95215 18 12.9521 18Z" fill="#373737"/>
</svg>
