<svg width="25" height="24" viewBox="0 0 25 24" fill="none" xmlns="http://www.w3.org/2000/svg">
<path d="M12.9519 19C13.8979 19 14.7619 18.897 15.5499 18.719L13.7929 16.962C13.5199 16.983 13.2429 17 12.9519 17C7.6009 17 5.5279 13.154 5.0259 12C5.2299 11.53 5.6999 10.619 6.5339 9.70297L5.1359 8.30497C3.5979 9.97197 3.0149 11.651 3.0039 11.684C2.9349 11.889 2.9349 12.112 3.0039 12.317C3.0249 12.383 5.3189 19 12.9519 19ZM12.9519 4.99997C11.1149 4.99997 9.6059 5.39597 8.3479 5.98097L4.6589 2.29297L3.2449 3.70697L21.2449 21.707L22.6589 20.293L19.3399 16.974C21.9539 15.023 22.8869 12.359 22.9009 12.317C22.9699 12.112 22.9699 11.889 22.9009 11.684C22.8789 11.617 20.5849 4.99997 12.9519 4.99997ZM17.9239 15.558L15.6439 13.278C15.8339 12.888 15.9519 12.459 15.9519 12C15.9519 10.359 14.5929 8.99997 12.9519 8.99997C12.4929 8.99997 12.0639 9.11797 11.6749 9.30897L9.8669 7.50097C10.7479 7.19297 11.7659 6.99997 12.9519 6.99997C18.3029 6.99997 20.3759 10.846 20.8779 12C20.5759 12.692 19.7119 14.342 17.9239 15.558Z" fill="#373737"/>
</svg>
