<svg width="25" height="24" viewBox="0 0 25 24" fill="none" xmlns="http://www.w3.org/2000/svg">
<path d="M5.95605 22.0002H9.95605H15.9561H19.9561C21.0591 22.0002 21.9561 21.1033 21.9561 20.0002V11.0002C21.9561 10.7352 21.8511 10.4803 21.6631 10.2933L13.6631 2.29325C13.2721 1.90225 12.6401 1.90225 12.2491 2.29325L4.24905 10.2933C4.06105 10.4803 3.95605 10.7352 3.95605 11.0002V20.0002C3.95605 21.1033 4.85305 22.0002 5.95605 22.0002ZM10.9561 20.0002V15.0002H14.9561V20.0002H10.9561ZM5.95605 11.4142L12.9561 4.41425L19.9561 11.4142L19.9571 20.0002H16.9561V15.0002C16.9561 13.8973 16.0591 13.0002 14.9561 13.0002H10.9561C9.85305 13.0002 8.95605 13.8973 8.95605 15.0002V20.0002H5.95605V11.4142Z" fill="#373737"/>
</svg>
