<svg width="25" height="24" viewBox="0 0 25 24" fill="none" xmlns="http://www.w3.org/2000/svg">
<path d="M20.9521 2H8.95215C7.84915 2 6.95215 2.897 6.95215 4V16C6.95215 17.103 7.84915 18 8.95215 18H20.9521C22.0551 18 22.9521 17.103 22.9521 16V4C22.9521 2.897 22.0551 2 20.9521 2ZM8.95215 16V4H20.9521L20.9541 16H8.95215Z" fill="#373737"/>
<path d="M4.95215 8H2.95215V20C2.95215 21.103 3.84915 22 4.95215 22H16.9521V20H4.95215V8Z" fill="#373737"/>
<path d="M12.9521 12L11.9521 11L9.95215 14H19.9521L15.9521 8L12.9521 12Z" fill="#373737"/>
</svg>
