<svg width="25" height="24" viewBox="0 0 25 24" fill="none" xmlns="http://www.w3.org/2000/svg">
<path d="M2.95215 11H7.95215V13H2.95215V11ZM17.9521 11H22.9521V13H17.9521V11ZM11.9521 17H13.9521V22H11.9521V17ZM11.9521 2H13.9521V7H11.9521V2Z" fill="#373737"/>
<path d="M5.1748 5.63672L6.58899 4.22248L10.1246 7.75795L8.7104 9.17219L5.1748 5.63672Z" fill="#373737"/>
<path d="M20.7295 18.3633L19.3153 19.7775L15.7797 16.242L17.1939 14.8278L20.7295 18.3633Z" fill="#373737"/>
<path d="M8.70996 14.8281L10.1241 16.2424L6.58855 19.7778L5.17437 18.3636L8.70996 14.8281Z" fill="#373737"/>
<path d="M15.7803 7.75684L19.3163 4.2218L20.7303 5.63621L17.1943 9.17125L15.7803 7.75684Z" fill="#373737"/>
</svg>
