<svg width="25" height="24" viewBox="0 0 25 24" fill="none" xmlns="http://www.w3.org/2000/svg">
<path d="M12.9521 2C10.1951 2 7.95215 4.243 7.95215 7V10H6.95215C5.84915 10 4.95215 10.897 4.95215 12V20C4.95215 21.103 5.84915 22 6.95215 22H18.9521C20.0551 22 20.9521 21.103 20.9521 20V12C20.9521 10.897 20.0551 10 18.9521 10H17.9521V7C17.9521 4.243 15.7091 2 12.9521 2ZM18.9521 12L18.9541 20H6.95215V12H18.9521ZM9.95215 10V7C9.95215 5.346 11.2981 4 12.9521 4C14.6061 4 15.9521 5.346 15.9521 7V10H9.95215Z" fill="#373737"/>
</svg>
