<svg width="20" height="20" viewBox="0 0 20 20" fill="none" xmlns="http://www.w3.org/2000/svg">
<g id="icons / bx-lock-alt">
<path id="Vector" d="M9.99998 1.66602C7.70248 1.66602 5.83331 3.53518 5.83331 5.83268V8.33268H4.99998C4.08081 8.33268 3.33331 9.08018 3.33331 9.99935V16.666C3.33331 17.5852 4.08081 18.3327 4.99998 18.3327H15C15.9191 18.3327 16.6666 17.5852 16.6666 16.666V9.99935C16.6666 9.08018 15.9191 8.33268 15 8.33268H14.1666V5.83268C14.1666 3.53518 12.2975 1.66602 9.99998 1.66602ZM15 9.99935L15.0016 16.666H4.99998V9.99935H15ZM7.49998 8.33268V5.83268C7.49998 4.45435 8.62165 3.33268 9.99998 3.33268C11.3783 3.33268 12.5 4.45435 12.5 5.83268V8.33268H7.49998Z" fill="white"/>
</g>
</svg>
