<svg width="25" height="24" viewBox="0 0 25 24" fill="none" xmlns="http://www.w3.org/2000/svg">
<path d="M12.9521 2C10.1951 2 7.95215 4.243 7.95215 7V9H6.95215C5.84915 9 4.95215 9.897 4.95215 11V20C4.95215 21.103 5.84915 22 6.95215 22H18.9521C20.0551 22 20.9521 21.103 20.9521 20V11C20.9521 9.897 20.0551 9 18.9521 9H17.9521V7C17.9521 4.243 15.7091 2 12.9521 2ZM9.95215 7C9.95215 5.346 11.2981 4 12.9521 4C14.6061 4 15.9521 5.346 15.9521 7V9H9.95215V7ZM18.9541 20H13.9521V17.722C14.5471 17.375 14.9521 16.737 14.9521 16C14.9521 14.897 14.0551 14 12.9521 14C11.8491 14 10.9521 14.897 10.9521 16C10.9521 16.736 11.3571 17.375 11.9521 17.722V20H6.95215V11H18.9521L18.9541 20Z" fill="#373737"/>
</svg>
