<svg width="25" height="24" viewBox="0 0 25 24" fill="none" xmlns="http://www.w3.org/2000/svg">
<path d="M21.9521 4H3.95215C3.39915 4 2.95215 4.447 2.95215 5V19C2.95215 19.553 3.39915 20 3.95215 20H21.9521C22.5051 20 22.9521 19.553 22.9521 19V5C22.9521 4.447 22.5051 4 21.9521 4ZM20.9521 15C19.2951 15 17.9521 16.343 17.9521 18H7.95215C7.95215 16.343 6.60915 15 4.95215 15V9C6.60915 9 7.95215 7.657 7.95215 6H17.9521C17.9521 7.657 19.2951 9 20.9521 9V15Z" fill="#373737"/>
<path d="M12.9521 8C10.7461 8 8.95215 9.794 8.95215 12C8.95215 14.206 10.7461 16 12.9521 16C15.1581 16 16.9521 14.206 16.9521 12C16.9521 9.794 15.1581 8 12.9521 8ZM12.9521 14C11.8491 14 10.9521 13.103 10.9521 12C10.9521 10.897 11.8491 10 12.9521 10C14.0551 10 14.9521 10.897 14.9521 12C14.9521 13.103 14.0551 14 12.9521 14Z" fill="#373737"/>
</svg>
