<svg width="25" height="24" viewBox="0 0 25 24" fill="none" xmlns="http://www.w3.org/2000/svg">
<path d="M16.9521 11.9995V5.99952C16.9521 3.78252 15.1671 1.97852 12.9731 1.97852C12.9041 1.97852 12.8331 1.98752 12.7641 2.00352C10.6451 2.10352 8.95215 3.85652 8.95215 5.99952V11.9995C8.95215 14.2055 10.7461 15.9995 12.9521 15.9995C15.1581 15.9995 16.9521 14.2055 16.9521 11.9995ZM10.9521 11.9995V5.99952C10.9521 4.89652 11.8491 3.99952 12.9521 3.99952C13.0071 3.99952 13.0611 3.99452 13.1151 3.98452C14.1401 4.05952 14.9521 4.93452 14.9521 5.99952V11.9995C14.9521 13.1025 14.0551 13.9995 12.9521 13.9995C11.8491 13.9995 10.9521 13.1025 10.9521 11.9995Z" fill="#373737"/>
<path d="M6.95215 11.9995H4.95215C4.95215 16.0715 8.01315 19.4355 11.9521 19.9305V21.9995H13.9521V19.9305C17.8911 19.4355 20.9521 16.0725 20.9521 11.9995H18.9521C18.9521 15.3085 16.2611 17.9995 12.9521 17.9995C9.64315 17.9995 6.95215 15.3085 6.95215 11.9995Z" fill="#373737"/>
</svg>
