<svg width="17" height="19" viewBox="0 0 17 19" fill="none" xmlns="http://www.w3.org/2000/svg">
<g id="icons / bx-map">
<g id="Group 6">
<path id="Vector" d="M8.47076 11.194C10.3394 11.194 11.859 9.67433 11.859 7.80572C11.859 5.9371 10.3394 4.41748 8.47076 4.41748C6.60214 4.41748 5.08252 5.9371 5.08252 7.80572C5.08252 9.67433 6.60214 11.194 8.47076 11.194ZM8.47076 6.1116C9.40506 6.1116 10.1649 6.87141 10.1649 7.80572C10.1649 8.74002 9.40506 9.49983 8.47076 9.49983C7.53645 9.49983 6.77664 8.74002 6.77664 7.80572C6.77664 6.87141 7.53645 6.1116 8.47076 6.1116Z" fill="#FFC800"/>
<path id="Vector_2" d="M7.9791 17.8129C8.12649 17.918 8.29844 17.9705 8.47039 17.9705C8.64235 17.9705 8.8143 17.918 8.96169 17.8129C9.21919 17.6308 15.2714 13.2608 15.2469 7.80577C15.2469 4.06939 12.2068 1.0293 8.47039 1.0293C4.73402 1.0293 1.69392 4.06939 1.69392 7.80153C1.66936 13.2608 7.72159 17.6308 7.9791 17.8129ZM8.47039 2.72341C11.2733 2.72341 13.5527 5.00285 13.5527 7.81C13.5705 11.5693 9.83585 14.9448 8.47039 16.0519C7.10578 14.9439 3.37025 11.5676 3.38804 7.80577C3.38804 5.00285 5.66747 2.72341 8.47039 2.72341Z" fill="#FFC800"/>
</g>
</g>
</svg>
