<svg width="18" height="14" viewBox="0 0 18 14" fill="none" xmlns="http://www.w3.org/2000/svg">
<path id="Vector" d="M0 1.375C0 0.75368 0.50368 0.25 1.125 0.25H16.875C17.4963 0.25 18 0.75368 18 1.375C18 1.99632 17.4963 2.5 16.875 2.5H1.125C0.50368 2.5 0 1.99632 0 1.375ZM0 7C0 6.37868 0.50368 5.875 1.125 5.875H16.875C17.4963 5.875 18 6.37868 18 7C18 7.62132 17.4963 8.125 16.875 8.125H1.125C0.50368 8.125 0 7.62132 0 7ZM0 12.625C0 12.0037 0.50368 11.5 1.125 11.5H16.875C17.4963 11.5 18 12.0037 18 12.625C18 13.2463 17.4963 13.75 16.875 13.75H1.125C0.50368 13.75 0 13.2463 0 12.625Z" fill="white"/>
</svg>
