<svg width="25" height="24" viewBox="0 0 25 24" fill="none" xmlns="http://www.w3.org/2000/svg">
<path d="M12.9521 14C15.1581 14 16.9521 12.206 16.9521 10C16.9521 7.794 15.1581 6 12.9521 6C10.7461 6 8.95215 7.794 8.95215 10C8.95215 12.206 10.7461 14 12.9521 14ZM12.9521 8C14.0551 8 14.9521 8.897 14.9521 10C14.9521 11.103 14.0551 12 12.9521 12C11.8491 12 10.9521 11.103 10.9521 10C10.9521 8.897 11.8491 8 12.9521 8Z" fill="#373737"/>
<path d="M12.3722 21.814C12.5462 21.938 12.7492 22 12.9522 22C13.1552 22 13.3582 21.938 13.5322 21.814C13.8362 21.599 20.9812 16.44 20.9522 10C20.9522 5.589 17.3632 2 12.9522 2C8.54124 2 4.95224 5.589 4.95224 9.995C4.92324 16.44 12.0682 21.599 12.3722 21.814ZM12.9522 4C16.2612 4 18.9522 6.691 18.9522 10.005C18.9732 14.443 14.5642 18.428 12.9522 19.735C11.3412 18.427 6.93124 14.441 6.95224 10C6.95224 6.691 9.64324 4 12.9522 4Z" fill="#373737"/>
</svg>
