<svg width="25" height="24" viewBox="0 0 25 24" fill="none" xmlns="http://www.w3.org/2000/svg">
<g id="icons / bx-navigation">
<path id="Vector" d="M2.95373 9.62962C2.93073 10.0406 3.16073 10.4236 3.53473 10.5956L11.0387 14.0376L14.4807 21.5406C14.6447 21.8966 15.0007 22.1236 15.3897 22.1236C15.4087 22.1236 15.4267 22.1226 15.4467 22.1216C15.8567 22.0996 16.2117 21.8266 16.3407 21.4356L21.9357 4.40362C22.0527 4.04562 21.9587 3.65062 21.6927 3.38362C21.4267 3.11662 21.0327 3.02562 20.6727 3.14062L3.63973 8.73562C3.24873 8.86462 2.97573 9.21962 2.95373 9.62962ZM19.4177 5.65862L15.2357 18.3886L12.7017 12.8666C12.6007 12.6486 12.4277 12.4736 12.2097 12.3746L6.68573 9.84062L19.4177 5.65862Z" fill="#373737"/>
</g>
</svg>
