<svg width="25" height="24" viewBox="0 0 25 24" fill="none" xmlns="http://www.w3.org/2000/svg">
<path d="M12.9521 2C10.2821 2 7.77015 3.04 5.88115 4.929C3.99215 6.818 2.95215 9.33 2.95215 12C2.95215 14.67 3.99215 17.182 5.88115 19.071C7.77015 20.96 10.2821 22 12.9521 22C15.6221 22 18.1341 20.96 20.0231 19.071C21.9121 17.182 22.9521 14.67 22.9521 12C22.9521 9.33 21.9121 6.818 20.0231 4.929C18.1341 3.04 15.6221 2 12.9521 2ZM18.6091 17.657C17.0981 19.168 15.0891 20 12.9521 20C10.8151 20 8.80615 19.168 7.29515 17.657C5.78415 16.146 4.95215 14.137 4.95215 12C4.95215 9.863 5.78415 7.854 7.29515 6.343C8.56715 5.07 10.1941 4.287 11.9521 4.069V12C11.9521 12.553 12.3991 13 12.9521 13H20.8831C20.6651 14.758 19.8821 16.385 18.6091 17.657ZM13.9521 11V4.062C15.7101 4.28 17.3361 5.071 18.6091 6.343C19.8821 7.616 20.6731 9.242 20.8901 11H13.9521Z" fill="#373737"/>
</svg>
