<svg width="25" height="24" viewBox="0 0 25 24" fill="none" xmlns="http://www.w3.org/2000/svg">
<path d="M4.95622 21.0006C5.03722 21.0006 5.11822 20.9906 5.19822 20.9706L9.19822 19.9706C9.37422 19.9266 9.53522 19.8356 9.66322 19.7076L21.9562 7.41459C22.3342 7.03659 22.5422 6.53459 22.5422 6.00059C22.5422 5.46659 22.3342 4.96459 21.9562 4.58659L20.3702 3.00059C19.6142 2.24459 18.2982 2.24459 17.5422 3.00059L5.24922 15.2936C5.12122 15.4216 5.03022 15.5826 4.98622 15.7576L3.98622 19.7576C3.90022 20.0986 4.00122 20.4586 4.24922 20.7076C4.43822 20.8976 4.69422 21.0006 4.95622 21.0006ZM18.9562 4.41459L20.5422 6.00059L18.9562 7.58659L17.3702 6.00059L18.9562 4.41459ZM6.85922 16.5116L15.9562 7.41459L17.5422 9.00059L8.44422 18.0976L6.33022 18.6256L6.85922 16.5116Z" fill="#373737"/>
</svg>
