<svg width="25" height="24" viewBox="0 0 25 24" fill="none" xmlns="http://www.w3.org/2000/svg">
<path d="M17.9561 5C17.9541 5 17.9531 5 17.9521 5H17.9511H9.95215C8.11415 5 6.36615 5.737 5.02815 7.076C3.68915 8.415 2.95215 10.163 2.95215 12C2.95215 13.838 3.68915 15.586 5.02815 16.924C6.36615 18.263 8.11415 19 9.95215 19H17.9521V17H9.95215C8.64915 17 7.40215 16.471 6.44215 15.51C5.48115 14.55 4.95215 13.303 4.95215 12C4.95215 10.698 5.48115 9.451 6.44215 8.49C7.40215 7.529 8.64915 7 9.95215 7H17.9521V6L17.9531 7C17.9541 7 17.9551 7 17.9561 7C18.7461 7 19.4951 7.314 20.0651 7.886C20.6361 8.457 20.9511 9.208 20.9521 10.002C20.9531 10.791 20.6391 11.541 20.0681 12.112C19.4951 12.684 18.7431 12.999 17.9521 13H9.95215C9.69615 13 9.44715 12.893 9.25415 12.7C9.05915 12.505 8.95215 12.256 8.95215 12C8.95215 11.748 9.06215 11.493 9.25315 11.302C9.44715 11.107 9.69615 11 9.95215 11H17.9521V9H9.95215C9.16215 9 8.41115 9.315 7.83815 9.889C7.26615 10.461 6.95215 11.211 6.95215 12C6.95215 12.789 7.26615 13.54 7.84015 14.114C8.41215 14.686 9.16315 15 9.95215 15H17.9531C19.2771 14.999 20.5301 14.477 21.4811 13.527C22.4321 12.577 22.9541 11.323 22.9521 9.999C22.9511 8.673 22.4281 7.42 21.4801 6.472C20.5321 5.522 19.2801 5 17.9561 5Z" fill="#373737"/>
</svg>
