<svg width="25" height="24" viewBox="0 0 25 24" fill="none" xmlns="http://www.w3.org/2000/svg">
<path d="M12.9521 4C10.1951 4 7.95215 6.243 7.95215 9H9.95215C9.95215 7.346 11.2981 6 12.9521 6C14.6061 6 15.9521 7.346 15.9521 9C15.9521 10.069 15.4981 10.465 14.4711 11.255C14.0891 11.549 13.6581 11.881 13.2451 12.293C11.9331 13.604 11.9471 14.897 11.9521 15V17H13.9521V14.991C13.9521 14.967 13.9751 14.39 14.6591 13.707C14.9791 13.387 15.3411 13.109 15.6901 12.84C16.7501 12.024 17.9521 11.1 17.9521 9C17.9521 6.243 15.7091 4 12.9521 4ZM11.9521 18H13.9521V20H11.9521V18Z" fill="#373737"/>
</svg>
