<svg width="25" height="24" viewBox="0 0 25 24" fill="none" xmlns="http://www.w3.org/2000/svg">
<path d="M10.9521 18C12.7981 18 14.4951 17.365 15.8491 16.312L20.2451 20.708L21.6591 19.294L17.2631 14.898C18.3171 13.543 18.9521 11.846 18.9521 10C18.9521 5.589 15.3631 2 10.9521 2C6.54115 2 2.95215 5.589 2.95215 10C2.95215 14.411 6.54115 18 10.9521 18ZM10.9521 4C14.2611 4 16.9521 6.691 16.9521 10C16.9521 13.309 14.2611 16 10.9521 16C7.64315 16 4.95215 13.309 4.95215 10C4.95215 6.691 7.64315 4 10.9521 4Z" fill="#373737"/>
</svg>
