<svg width="25" height="24" viewBox="0 0 25 24" fill="none" xmlns="http://www.w3.org/2000/svg">
<path d="M12.9515 9C11.3095 9 9.95146 10.359 9.95146 12C9.95146 13.642 11.3095 15 12.9515 15C14.5925 15 15.9515 13.642 15.9515 12C15.9515 10.359 14.5925 9 12.9515 9Z" fill="#373737"/>
<path d="M12.9515 5C5.31846 5 3.02446 11.617 3.00346 11.684L2.89746 12L3.00246 12.316C3.02446 12.383 5.31846 19 12.9515 19C20.5845 19 22.8785 12.383 22.8995 12.316L23.0055 12L22.9005 11.684C22.8785 11.617 20.5845 5 12.9515 5ZM12.9515 17C7.60046 17 5.52746 13.154 5.02546 12C5.52946 10.842 7.60346 7 12.9515 7C18.3025 7 20.3755 10.846 20.8775 12C20.3735 13.158 18.2995 17 12.9515 17Z" fill="#373737"/>
</svg>
