<svg width="25" height="24" viewBox="0 0 25 24" fill="none" xmlns="http://www.w3.org/2000/svg">
<path d="M21.9458 6.90315C21.9128 6.56115 21.7068 6.26015 21.3988 6.10615L13.4258 2.10615C13.1448 1.96315 12.8128 1.96415 12.5308 2.10415L4.50384 6.10415C4.20684 6.25415 4.00184 6.54115 3.95984 6.87115C3.94684 6.96815 2.81484 16.6121 12.5008 21.8791C12.6488 21.9601 12.8138 22.0001 12.9778 22.0001C13.1478 22.0001 13.3178 21.9571 13.4698 21.8701C22.7768 16.6111 21.9838 7.29715 21.9458 6.90315ZM12.9688 19.8471C6.10884 15.8371 5.82884 9.49515 5.90584 7.64215L12.9768 4.11915L19.9748 7.63015C19.9798 9.50015 19.4938 15.8731 12.9688 19.8471Z" fill="#373737"/>
</svg>
