<svg width="20" height="20" viewBox="0 0 20 20" fill="none" xmlns="http://www.w3.org/2000/svg">
<path id="Vector" d="M8.64648 16.6465C10.4925 16.6465 12.1895 16.0115 13.5435 14.9585L17.9395 19.3545L19.3535 17.9405L14.9575 13.5445C16.0115 12.1895 16.6465 10.4925 16.6465 8.64648C16.6465 4.23548 13.0575 0.646484 8.64648 0.646484C4.23548 0.646484 0.646484 4.23548 0.646484 8.64648C0.646484 13.0575 4.23548 16.6465 8.64648 16.6465ZM8.64648 2.64648C11.9555 2.64648 14.6465 5.33748 14.6465 8.64648C14.6465 11.9555 11.9555 14.6465 8.64648 14.6465C5.33748 14.6465 2.64648 11.9555 2.64648 8.64648C2.64648 5.33748 5.33748 2.64648 8.64648 2.64648Z" fill="white"/>
</svg>
