<svg width="25" height="24" viewBox="0 0 25 24" fill="none" xmlns="http://www.w3.org/2000/svg">
<path d="M5.95605 20C5.95605 21.103 6.85305 22 7.95605 22H17.9561C19.0591 22 19.9561 21.103 19.9561 20V8H21.9561V6H18.9561H17.9561V4C17.9561 2.897 17.0591 2 15.9561 2H9.95605C8.85305 2 7.95605 2.897 7.95605 4V6H6.95605H3.95605V8H5.95605V20ZM9.95605 4H15.9561V6H9.95605V4ZM8.95605 8H16.9561H17.9561L17.9571 20H7.95605V8H8.95605Z" fill="#373737"/>
<path d="M9.95605 10H11.9561V18H9.95605V10ZM13.9561 10H15.9561V18H13.9561V10Z" fill="#373737"/>
</svg>
