<svg width="25" height="24" viewBox="0 0 25 24" fill="none" xmlns="http://www.w3.org/2000/svg">
<path d="M6.07321 21C6.45121 21.378 6.95321 21.586 7.48721 21.586C8.02121 21.586 8.52321 21.378 8.90121 21L13.2372 16.664C13.9532 16.885 14.6962 16.997 15.4542 16.997C17.4572 16.997 19.3412 16.218 20.7562 14.802C22.9022 12.655 23.5432 9.453 22.3882 6.644L21.8182 5.256L17.5742 9.499L15.4532 7.377L19.6962 3.134L18.3072 2.563C17.3972 2.189 16.4362 2 15.4502 2C13.4472 2 11.5642 2.78 10.1492 4.196C8.16421 6.18 7.46721 9.068 8.28721 11.714L3.95121 16.05C3.17121 16.829 3.17121 18.099 3.95121 18.878L6.07321 21ZM10.6212 12.209L10.3672 11.593C9.51921 9.532 9.98921 7.183 11.5632 5.61C12.6012 4.572 13.9812 4 15.4502 4C15.6272 4 15.8022 4.008 15.9762 4.025L12.6232 7.378L17.5722 12.328L20.9272 8.973C21.0832 10.581 20.5242 12.204 19.3402 13.389C17.7902 14.939 15.3762 15.416 13.3562 14.585L12.7412 14.33L7.48721 19.586H7.48821L7.48721 20.586V19.586L5.36521 17.464L10.6212 12.209Z" fill="#373737"/>
</svg>
