<svg width="30" height="30" viewBox="0 0 30 30" fill="none" xmlns="http://www.w3.org/2000/svg">
<g id="Keyboard voice">
<g clip-path="url(#clip0_4735_11155)">
<rect width="30" height="30" rx="15" fill="#00203F"/>
<path id="Vector" d="M15 17.7814C16.4314 17.7814 17.5783 16.6259 17.5783 15.1944L17.5869 10.0205C17.5869 8.5891 16.4314 7.43359 15 7.43359C13.5685 7.43359 12.413 8.5891 12.413 10.0205V15.1944C12.413 16.6259 13.5685 17.7814 15 17.7814ZM13.9652 9.93431C13.9652 9.36518 14.4308 8.89953 15 8.89953C15.5691 8.89953 16.0347 9.36518 16.0347 9.93431L16.0261 15.2807C16.0261 15.8498 15.5691 16.3154 15 16.3154C14.4308 16.3154 13.9652 15.8498 13.9652 15.2807V9.93431ZM19.5702 15.1944C19.5702 17.7814 17.3799 19.5922 15 19.5922C12.62 19.5922 10.4297 17.7814 10.4297 15.1944H8.96375C8.96375 18.1349 11.3092 20.5667 14.1376 20.9892V23.8176H15.8623V20.9892C18.6907 20.5753 21.0362 18.1435 21.0362 15.1944H19.5702Z" fill="white"/>
</g>
</g>
<defs>
<clipPath id="clip0_4735_11155">
<rect width="30" height="30" rx="15" fill="white"/>
</clipPath>
</defs>
</svg>
