<svg width="20" height="25" viewBox="0 0 20 25" fill="none" xmlns="http://www.w3.org/2000/svg">
<g id="Clip path group">
<mask id="mask0_2446_2892" style="mask-type:luminance" maskUnits="userSpaceOnUse" x="0" y="0" width="20" height="25">
<g id="C">
<path id="Vector" d="M0.197266 0.457031H19.3567V24.4587H0.197266V0.457031Z" fill="white"/>
</g>
</mask>
<g mask="url(#mask0_2446_2892)">
<g id="Group">
<path id="Vector_2" d="M16.1963 13.2094C16.1693 10.173 18.6295 8.71405 18.7403 8.64235C17.3561 6.57671 15.2042 6.29541 14.4364 6.26231C12.6062 6.07202 10.8624 7.3627 9.93244 7.3627C9.00245 7.3627 7.56962 6.28989 6.05028 6.32023C4.05243 6.35056 2.21137 7.50335 1.18136 9.32905C-0.892192 12.997 0.65148 18.4383 2.67366 21.4195C3.66313 22.8757 4.83913 24.5166 6.38821 24.4559C7.88052 24.3952 8.44284 23.4714 10.2433 23.4714C12.0438 23.4714 12.5521 24.4559 14.1255 24.4256C15.7286 24.3925 16.7451 22.9363 17.7265 21.4747C18.8593 19.7841 19.3269 18.1459 19.354 18.0604C19.3188 18.0466 16.2288 16.8387 16.1963 13.2094Z" fill="black"/>
</g>
</g>
</g>
</svg>
