<svg width="201" height="68" viewBox="0 0 201 68" fill="none" xmlns="http://www.w3.org/2000/svg">
<path d="M81.0188 20.0508V2.10017C81.0188 1.12784 81.7667 0.379897 82.7391 0.379897C83.7114 0.379897 84.4593 1.12784 84.4593 2.10017V2.9229C85.8056 1.20264 88.0495 0.155518 90.8169 0.155518C93.5842 0.155518 96.576 1.50181 97.9223 4.04482C99.493 1.6514 102.335 0.155518 105.626 0.155518C110.787 0.155518 114.377 3.74564 114.377 9.50481V20.1256C114.377 21.1727 113.629 21.9955 112.582 21.9955C111.535 21.9955 110.712 21.1727 110.712 20.1256V9.80398C110.712 5.91467 108.543 3.59605 105.177 3.59605C101.812 3.59605 99.5678 6.06426 99.5678 9.80398V20.1256C99.5678 21.1727 98.8199 21.9955 97.7727 21.9955C96.7256 21.9955 95.9029 21.1727 95.9029 20.1256V9.80398C95.9029 5.91467 93.7338 3.59605 90.3681 3.59605C87.0023 3.59605 84.6837 6.06426 84.6837 9.80398V20.1256C84.6837 21.1727 83.9358 21.9955 82.8887 21.9955C81.8415 21.9955 81.0188 21.1727 81.0188 20.1256V20.0508Z" fill="white"/>
<path d="M123.577 28.4278C123.577 28.2034 123.577 27.979 123.726 27.7546L126.194 21.6963L118.491 2.92289C118.416 2.69851 118.341 2.47412 118.341 2.17495C118.341 1.20262 119.089 0.379883 120.211 0.379883C121.333 0.379883 121.557 0.828647 121.856 1.57659L128.214 17.2834L134.422 1.5018C134.721 0.753854 135.394 0.379883 136.067 0.379883C137.189 0.379883 137.937 1.20262 137.937 2.17495C137.937 3.14727 137.937 2.69851 137.787 2.92289L127.017 29.2505C126.793 29.9236 126.12 30.3724 125.372 30.3724C124.624 30.3724 123.577 29.5497 123.577 28.5773V28.4278Z" fill="white"/>
<path d="M80.9441 50.7165V34.0374C80.9441 31.6439 82.7392 29.8489 85.1326 29.8489C87.526 29.8489 89.3211 31.6439 89.3211 34.0374V50.2677C89.3211 56.2513 92.612 59.8414 97.7728 59.8414C102.934 59.8414 106 56.3261 106 50.2677V34.0374C106 31.6439 107.795 29.8489 110.263 29.8489C112.732 29.8489 114.452 31.6439 114.452 34.0374V50.7165C114.452 61.1129 107.72 67.8444 97.7728 67.8444C87.8252 67.8444 81.0189 61.1129 81.0189 50.7165H80.9441Z" fill="white"/>
<path d="M118.715 64.0298C117.892 63.0575 117.368 62.16 117.368 60.8137C117.368 59.4674 118.864 57.8967 120.51 57.8967C122.155 57.8967 122.529 58.4202 123.427 59.3178C124.698 60.5893 126.718 61.5616 129.41 61.5616C132.103 61.5616 133 60.8137 133 59.3178C133 57.8219 131.953 57.3731 129.036 56.8496L126.194 56.4008C120.061 55.2041 117.967 52.5863 117.967 48.3978C117.967 44.2093 122.604 39.946 129.036 39.946C135.469 39.946 136.89 41.4419 138.834 43.611C139.582 44.5085 140.106 45.4808 140.106 46.8271C140.106 48.1734 138.909 49.7441 137.189 49.7441C135.469 49.7441 135.02 49.2205 134.122 48.323C132.701 46.9767 131.205 46.154 128.887 46.154C126.568 46.154 125.371 46.9019 125.371 48.323C125.371 49.7441 126.493 50.3425 129.41 50.866L132.178 51.3896C138.311 52.5863 140.405 55.2789 140.405 59.3926C140.405 63.5063 135.543 67.8443 128.438 67.8443C121.332 67.8443 120.51 66.1989 118.64 64.1046L118.715 64.0298Z" fill="white"/>
<path d="M153.943 67.62C148.782 67.62 145.94 64.3291 145.94 59.8414V47.65H145.042C142.873 47.65 141.377 46.0793 141.377 44.0598C141.377 42.0404 142.948 40.4697 144.668 40.4697H145.192C145.865 40.4697 146.314 40.0209 146.314 39.1982V37.5527C146.314 35.2341 147.959 33.5886 150.203 33.5886C152.447 33.5886 154.018 35.2341 154.018 37.5527V40.4697H157.533C159.552 40.4697 161.123 41.9656 161.123 44.0598C161.123 46.1541 159.552 47.65 157.533 47.65H154.018V57.2984C154.018 59.1683 154.691 59.7666 156.486 59.7666H157.533C159.552 59.7666 161.048 61.3373 161.048 63.3568C161.048 65.3762 159.178 67.62 156.112 67.62H154.018H153.943Z" fill="white"/>
<path d="M161.647 53.8578C161.647 46.0044 167.406 39.946 174.885 39.946C182.365 39.946 180.869 40.9932 182.589 42.9378C183.038 41.1428 184.534 40.0208 186.329 40.0208C188.124 40.0208 190.143 41.7411 190.143 44.1345V63.7306C190.143 66.0493 188.498 67.7695 186.329 67.7695C184.16 67.7695 183.038 66.5728 182.589 64.8526C180.794 66.872 178.101 67.9191 174.885 67.9191C167.406 67.9191 161.647 61.8608 161.647 54.0074V53.8578ZM182.215 53.8578C182.215 50.1929 179.597 47.5003 176.007 47.5003C172.417 47.5003 169.65 50.1929 169.65 53.8578C169.65 57.5227 172.342 60.2153 176.007 60.2153C179.672 60.2153 182.215 57.5975 182.215 53.8578Z" fill="white"/>
<path d="M68.6029 31.644L39.6575 1.65149C37.5633 -0.44275 34.1975 -0.44275 32.1781 1.65149L2.48474 31.644C1.51242 32.6163 0.914062 33.9626 0.914062 35.3837V62.5341C0.914062 62.6836 0.914062 62.8332 0.914062 62.908C0.914062 63.0576 0.914062 63.2072 0.914062 63.282C0.914062 63.4316 0.914062 63.5064 0.914062 63.656C0.914062 63.7308 0.914062 63.8804 0.914062 63.9552C0.914062 63.9552 0.914062 63.9551 0.914062 64.0299C0.914062 64.0299 0.914062 64.0299 0.914062 64.1047C0.914062 64.1795 0.914062 64.2543 0.988856 64.3291C0.988856 64.3291 0.988856 64.4039 0.988856 64.4787C0.988856 64.6283 1.13845 64.7779 1.21324 64.9275C1.21324 64.9275 1.21324 65.0023 1.21324 65.0771C1.21324 65.1519 1.36283 65.3014 1.43762 65.3762C1.51242 65.5258 1.58721 65.6006 1.66201 65.6754C1.66201 65.7502 1.81159 65.825 1.88639 65.9746C1.96118 66.0494 2.03598 66.1242 2.18557 66.2738C2.33515 66.4234 2.48474 66.573 2.70913 66.7225C2.93351 66.8721 3.15789 67.0217 3.38227 67.0965C3.38227 67.0965 3.45707 67.0965 3.53186 67.1713C3.53186 67.1713 3.68145 67.1713 3.75625 67.2461C4.3546 67.5453 5.10254 67.6949 5.85049 67.6949H52.7465L43.3224 58.2708C42.9485 57.8968 42.9485 57.2985 43.3224 56.8497L28.7375 40.9185L33.8984 35.6829L49.8295 50.3426C50.2783 50.0434 50.8019 50.0434 51.1758 50.4922L67.7802 67.0965C68.0794 66.9469 68.3785 66.7225 68.6029 66.4982C68.6777 66.4234 68.8273 66.3486 68.9021 66.2738C68.9769 66.199 69.0517 66.1242 69.2013 65.9746C69.2013 65.8998 69.3509 65.825 69.4257 65.6754C69.5004 65.6006 69.5752 65.451 69.65 65.3762C69.65 65.3014 69.7996 65.1519 69.8744 65.0771C69.8744 65.0771 69.8744 65.0023 69.8744 64.9275C69.9492 64.7779 70.024 64.6283 70.0988 64.4787C70.0988 64.4787 70.0988 64.4039 70.0988 64.3291C70.0988 64.2543 70.0988 64.1795 70.1736 64.1047C70.1736 64.1047 70.1736 64.1047 70.1736 64.0299C70.1736 64.0299 70.1736 64.0299 70.1736 63.9552C70.1736 63.8804 70.1736 63.7308 70.1736 63.656C70.1736 63.5064 70.1736 63.4316 70.1736 63.282C70.1736 63.1324 70.1736 62.9828 70.1736 62.908C70.1736 62.7584 70.1736 62.6088 70.1736 62.5341V35.3837C70.1736 33.9626 69.65 32.6911 68.6029 31.644ZM43.5468 21.9955L39.8819 25.6605C39.5827 25.9596 39.2087 26.0344 38.8348 26.0344L35.1699 25.6605L34.0479 26.7824L35.3942 28.1287C35.9178 28.6522 35.9178 29.475 35.3942 29.9985L18.3411 47.0516C17.9672 47.4256 17.8176 48.0988 18.1168 48.5475L20.0614 52.362C20.2858 52.8856 20.211 53.4839 19.837 53.8579L18.3411 55.3538C17.8176 55.8774 16.9948 55.8774 16.4713 55.3538L11.7592 50.6418C11.4601 50.3426 11.3105 49.9686 11.3853 49.5946V37.4032C11.3853 37.104 11.5349 36.8796 11.7592 36.6552L26.8677 21.5468C27.3912 21.0232 28.214 21.0232 28.7375 21.5468L30.0838 22.8931L31.2058 21.846L30.9066 18.181C30.9066 17.8071 31.0562 17.4331 31.2806 17.1339L34.9455 13.469C35.469 13.0202 36.2918 13.0202 36.7405 13.469L43.3972 20.1257C43.9208 20.6492 43.9208 21.472 43.3972 21.9955H43.5468Z" fill="#FFC800"/>
<path d="M190.668 40.021V37.0293H189.77C189.322 37.0293 189.097 36.7301 189.097 36.3561C189.097 35.9821 189.396 35.683 189.77 35.683H193.136C193.51 35.683 193.809 35.9821 193.809 36.3561C193.809 36.7301 193.51 37.0293 193.136 37.0293H192.239V40.021C192.239 40.395 191.865 40.769 191.491 40.769C191.117 40.769 190.743 40.4698 190.743 40.021H190.668ZM194.408 40.021V36.8797C194.408 35.9821 194.931 35.6082 195.529 35.6082C196.128 35.6082 196.502 35.9073 196.876 36.5805L197.699 38.0764L198.521 36.5805C198.895 35.9073 199.269 35.6082 199.868 35.6082C200.466 35.6082 200.915 35.9821 200.915 36.8797V40.021C200.915 40.395 200.541 40.769 200.167 40.769C199.793 40.769 199.419 40.395 199.419 40.021V37.6276L198.671 38.9739C198.372 39.5723 198.072 39.7966 197.624 39.7966C197.175 39.7966 196.876 39.4975 196.577 38.9739L195.903 37.6276V40.0958C195.903 40.4698 195.529 40.8438 195.155 40.8438C194.782 40.8438 194.408 40.5446 194.408 40.0958V40.021Z" fill="white"/>
</svg>
