<svg width="25" height="25" viewBox="0 0 25 25" fill="none" xmlns="http://www.w3.org/2000/svg">
<g id="icons / bxl-facebook-square">
<path id="Vector" d="M22.2778 1.45703H2.72222C2.04633 1.45703 1.5 2.00459 1.5 2.67925V22.2348C1.5 22.9095 2.04633 23.457 2.72222 23.457H13.2517V14.9504H10.3941V11.6198H13.2517V9.17536C13.2517 6.3337 14.9872 4.78514 17.5294 4.78514C18.3838 4.7827 19.2393 4.8267 20.09 4.91592V7.8737H18.3361C16.9574 7.8737 16.6886 8.53125 16.6886 9.49314V11.6137H19.9849L19.5571 14.9443H16.6873V23.457H22.2778C22.9537 23.457 23.5 22.9095 23.5 22.2348V2.67925C23.5 2.00459 22.9537 1.45703 22.2778 1.45703Z" fill="#1877F2"/>
</g>
</svg>
