<svg width="25" height="25" viewBox="0 0 25 25" fill="none" xmlns="http://www.w3.org/2000/svg">
<g id="Logo">
<path id="XMLID_30_" d="M8.81537 1.11613C5.89225 2.11738 3.39897 4.30784 2.01475 7.06972C1.531 8.02409 1.18131 9.03847 0.973186 10.0871C0.442561 12.6943 0.811936 15.4697 2.01475 17.8482C2.79428 19.4002 3.91647 20.7778 5.27397 21.8532C6.5574 22.8746 8.04897 23.6274 9.63522 24.0507C11.6312 24.5883 13.7612 24.5747 15.7768 24.1177C17.5979 23.701 19.3182 22.8277 20.6888 21.5644C22.1401 20.2271 23.1751 18.4735 23.7263 16.5853C24.3244 14.5224 24.4051 12.3249 24.0287 10.215C20.2655 10.215 16.5024 10.215 12.7327 10.215C12.7327 11.7741 12.7327 13.3397 12.7327 14.8988C14.9101 14.8988 17.094 14.8988 19.2708 14.8988C19.0154 16.3974 18.1285 17.7614 16.8652 18.608C16.0721 19.1386 15.1651 19.4883 14.2243 19.6496C13.2769 19.8108 12.3024 19.831 11.3616 19.643C10.4007 19.455 9.48662 19.0514 8.6874 18.4871C7.41053 17.5932 6.43647 16.2764 5.93912 14.8046C5.42865 13.306 5.42162 11.633 5.93912 10.1344C6.29537 9.07925 6.8935 8.09816 7.67959 7.3055C8.64709 6.31081 9.90381 5.60534 11.2613 5.31659C12.4238 5.06816 13.6468 5.11503 14.7826 5.45769C15.7501 5.75347 16.6374 6.27753 17.3696 6.97644C18.1088 6.24378 18.841 5.50503 19.5802 4.77238C19.9632 4.37581 20.3733 3.99941 20.7493 3.58972C19.6337 2.55472 18.3169 1.72175 16.8854 1.19769C14.3185 0.235814 11.409 0.215658 8.81537 1.11613Z" fill="white"/>
<path id="XMLID_31_" d="M8.81557 1.11602C11.4092 0.215546 14.3192 0.235703 16.8992 1.19008C18.3303 1.71414 19.6409 2.54758 20.7631 3.58211C20.3867 3.98523 19.9835 4.3682 19.594 4.76477C18.8548 5.49742 18.1226 6.23617 17.3834 6.96883C16.6507 6.26992 15.7638 5.7393 14.7963 5.45008C13.6606 5.10742 12.4376 5.06055 11.2751 5.30898C9.9176 5.59773 8.66135 6.31023 7.69338 7.29789C6.90729 8.09102 6.30916 9.07211 5.95291 10.1268C4.64275 9.11195 3.33213 8.09055 2.02197 7.07617C3.39916 4.30773 5.89244 2.11727 8.81557 1.11602Z" fill="#E94435"/>
<path id="XMLID_32_" d="M0.973186 10.0867C1.18131 9.03856 1.53756 8.02371 2.01475 7.06934C3.3249 8.08418 4.63553 9.10559 5.94569 10.12C5.42819 11.6186 5.43522 13.2915 5.94569 14.7901C4.63553 15.805 3.3249 16.8264 2.01475 17.8407C0.811936 15.4759 0.442561 12.6939 0.973186 10.0867Z" fill="#F8BB15"/>
<path id="XMLID_33_" d="M12.7393 10.208C16.5024 10.208 20.2656 10.208 24.0352 10.208C24.4116 12.3179 24.331 14.5154 23.7329 16.5783C23.1821 18.4664 22.1471 20.2271 20.6954 21.5574C19.4256 20.5697 18.1487 19.5816 16.8854 18.5939C18.1487 17.7539 19.0356 16.3833 19.291 14.8847C17.1137 14.8847 14.9298 14.8847 12.7529 14.8847C12.7327 13.3327 12.7393 11.7736 12.7393 10.208Z" fill="#547DBE"/>
<path id="XMLID_34_" d="M2.01465 17.8475C3.3248 16.8327 4.63543 15.8112 5.94559 14.7969C6.44293 16.2753 7.41699 17.5855 8.69387 18.4794C9.49355 19.0437 10.4071 19.4403 11.3681 19.6353C12.3089 19.8233 13.29 19.8031 14.2307 19.6419C15.1715 19.4806 16.0786 19.1314 16.8717 18.6003C18.1415 19.588 19.4184 20.5761 20.6817 21.5638C19.3111 22.8336 17.5907 23.7008 15.7696 24.117C13.7606 24.5741 11.6301 24.5872 9.62809 24.05C8.04231 23.6267 6.55027 22.8739 5.26684 21.8525C3.91637 20.7706 2.79418 19.393 2.01465 17.8475Z" fill="#34A751"/>
</g>
</svg>
