<svg width="200" height="68" viewBox="0 0 200 68" fill="none" xmlns="http://www.w3.org/2000/svg">
<path d="M80.1047 20.0508V2.10017C80.1047 1.12784 80.8527 0.379897 81.825 0.379897C82.7973 0.379897 83.5453 1.12784 83.5453 2.10017V2.9229C84.8916 1.20264 87.1354 0.155518 89.9028 0.155518C92.6702 0.155518 95.662 1.50181 97.0083 4.04482C98.5789 1.6514 101.421 0.155518 104.712 0.155518C109.873 0.155518 113.463 3.74564 113.463 9.50481V20.1256C113.463 21.1727 112.715 21.9955 111.668 21.9955C110.621 21.9955 109.798 21.1727 109.798 20.1256V9.80398C109.798 5.91467 107.629 3.59605 104.263 3.59605C100.898 3.59605 98.6537 6.06426 98.6537 9.80398V20.1256C98.6537 21.1727 97.9058 21.9955 96.8587 21.9955C95.8115 21.9955 94.9888 21.1727 94.9888 20.1256V9.80398C94.9888 5.91467 92.8198 3.59605 89.454 3.59605C86.0883 3.59605 83.7697 6.06426 83.7697 9.80398V20.1256C83.7697 21.1727 83.0217 21.9955 81.9746 21.9955C80.9275 21.9955 80.1047 21.1727 80.1047 20.1256V20.0508Z" fill="#00203F"/>
<path d="M122.662 28.4278C122.662 28.2034 122.662 27.979 122.812 27.7546L125.28 21.6963L117.576 2.92289C117.502 2.69851 117.427 2.47412 117.427 2.17495C117.427 1.20262 118.175 0.379883 119.297 0.379883C120.419 0.379883 120.643 0.828647 120.942 1.57659L127.3 17.2834L133.508 1.5018C133.807 0.753854 134.48 0.379883 135.153 0.379883C136.275 0.379883 137.023 1.20262 137.023 2.17495C137.023 3.14727 137.023 2.69851 136.873 2.92289L126.103 29.2505C125.879 29.9236 125.205 30.3724 124.458 30.3724C123.71 30.3724 122.662 29.5497 122.662 28.5773V28.4278Z" fill="#00203F"/>
<path d="M80.03 50.7165V34.0374C80.03 31.6439 81.8251 29.8489 84.2185 29.8489C86.6119 29.8489 88.407 31.6439 88.407 34.0374V50.2677C88.407 56.2513 91.6979 59.8414 96.8588 59.8414C102.02 59.8414 105.086 56.3261 105.086 50.2677V34.0374C105.086 31.6439 106.881 29.8489 109.349 29.8489C111.818 29.8489 113.538 31.6439 113.538 34.0374V50.7165C113.538 61.1129 106.806 67.8444 96.8588 67.8444C86.9111 67.8444 80.1048 61.1129 80.1048 50.7165H80.03Z" fill="#00203F"/>
<path d="M117.801 64.0298C116.978 63.0575 116.454 62.16 116.454 60.8137C116.454 59.4674 117.95 57.8967 119.596 57.8967C121.241 57.8967 121.615 58.4202 122.513 59.3178C123.784 60.5893 125.804 61.5616 128.496 61.5616C131.189 61.5616 132.086 60.8137 132.086 59.3178C132.086 57.8219 131.039 57.3731 128.122 56.8496L125.28 56.4008C119.147 55.2041 117.053 52.5863 117.053 48.3978C117.053 44.2093 121.69 39.946 128.122 39.946C134.555 39.946 135.976 41.4419 137.92 43.611C138.668 44.5085 139.192 45.4808 139.192 46.8271C139.192 48.1734 137.995 49.7441 136.275 49.7441C134.555 49.7441 134.106 49.2205 133.208 48.323C131.787 46.9767 130.291 46.154 127.973 46.154C125.654 46.154 124.457 46.9019 124.457 48.323C124.457 49.7441 125.579 50.3425 128.496 50.866L131.264 51.3896C137.397 52.5863 139.491 55.2789 139.491 59.3926C139.491 63.5063 134.629 67.8443 127.524 67.8443C120.418 67.8443 119.596 66.1989 117.726 64.1046L117.801 64.0298Z" fill="#00203F"/>
<path d="M153.029 67.62C147.868 67.62 145.026 64.3291 145.026 59.8414V47.65H144.128C141.959 47.65 140.463 46.0793 140.463 44.0598C140.463 42.0404 142.034 40.4697 143.754 40.4697H144.278C144.951 40.4697 145.4 40.0209 145.4 39.1982V37.5527C145.4 35.2341 147.045 33.5886 149.289 33.5886C151.533 33.5886 153.104 35.2341 153.104 37.5527V40.4697H156.619C158.638 40.4697 160.209 41.9656 160.209 44.0598C160.209 46.1541 158.638 47.65 156.619 47.65H153.104V57.2984C153.104 59.1683 153.777 59.7666 155.572 59.7666H156.619C158.638 59.7666 160.134 61.3373 160.134 63.3568C160.134 65.3762 158.264 67.62 155.198 67.62H153.104H153.029Z" fill="#00203F"/>
<path d="M160.733 53.8578C160.733 46.0044 166.492 39.946 173.971 39.946C181.451 39.946 179.955 40.9932 181.675 42.9378C182.124 41.1428 183.62 40.0208 185.415 40.0208C187.21 40.0208 189.229 41.7411 189.229 44.1345V63.7306C189.229 66.0493 187.584 67.7695 185.415 67.7695C183.246 67.7695 182.124 66.5728 181.675 64.8526C179.88 66.872 177.187 67.9191 173.971 67.9191C166.492 67.9191 160.733 61.8608 160.733 54.0074V53.8578ZM181.301 53.8578C181.301 50.1929 178.683 47.5003 175.093 47.5003C171.503 47.5003 168.736 50.1929 168.736 53.8578C168.736 57.5227 171.428 60.2153 175.093 60.2153C178.758 60.2153 181.301 57.5975 181.301 53.8578Z" fill="#00203F"/>
<path d="M67.6889 31.644L38.7435 1.65149C36.6492 -0.44275 33.2835 -0.44275 31.264 1.65149L1.57068 31.644C0.598354 32.6163 0 33.9626 0 35.3837V62.5341C0 62.6836 0 62.8332 0 62.908C0 63.0576 0 63.2072 0 63.282C0 63.4316 0 63.5064 0 63.656C0 63.7308 0 63.8804 0 63.9552C0 63.9552 0 63.9551 0 64.0299C0 64.0299 0 64.0299 0 64.1047C0 64.1795 -4.29091e-07 64.2543 0.0747939 64.3291C0.0747939 64.3291 0.0747939 64.4039 0.0747939 64.4787C0.0747939 64.6283 0.224383 64.7779 0.299177 64.9275C0.299177 64.9275 0.299177 65.0023 0.299177 65.0771C0.299177 65.1519 0.448766 65.3014 0.52356 65.3762C0.598354 65.5258 0.673149 65.6006 0.747943 65.6754C0.747943 65.7502 0.897531 65.825 0.972325 65.9746C1.04712 66.0494 1.12191 66.1242 1.2715 66.2738C1.42109 66.4234 1.57068 66.573 1.79506 66.7225C2.01945 66.8721 2.24383 67.0217 2.46821 67.0965C2.46821 67.0965 2.54301 67.0965 2.6178 67.1713C2.6178 67.1713 2.76739 67.1713 2.84218 67.2461C3.44054 67.5453 4.18848 67.6949 4.93642 67.6949H51.8325L42.4084 58.2708C42.0344 57.8968 42.0344 57.2985 42.4084 56.8497L27.8235 40.9185L32.9843 35.6829L48.9155 50.3426C49.3642 50.0434 49.8878 50.0434 50.2618 50.4922L66.8661 67.0965C67.1653 66.9469 67.4645 66.7225 67.6889 66.4982C67.7636 66.4234 67.9132 66.3486 67.988 66.2738C68.0628 66.199 68.1376 66.1242 68.2872 65.9746C68.2872 65.8998 68.4368 65.825 68.5116 65.6754C68.5864 65.6006 68.6612 65.451 68.736 65.3762C68.736 65.3014 68.8856 65.1519 68.9604 65.0771C68.9604 65.0771 68.9604 65.0023 68.9604 64.9275C69.0352 64.7779 69.1099 64.6283 69.1847 64.4787C69.1847 64.4787 69.1847 64.4039 69.1847 64.3291C69.1847 64.2543 69.1847 64.1795 69.2595 64.1047C69.2595 64.1047 69.2595 64.1047 69.2595 64.0299C69.2595 64.0299 69.2595 64.0299 69.2595 63.9552C69.2595 63.8804 69.2595 63.7308 69.2595 63.656C69.2595 63.5064 69.2595 63.4316 69.2595 63.282C69.2595 63.1324 69.2595 62.9828 69.2595 62.908C69.2595 62.7584 69.2595 62.6088 69.2595 62.5341V35.3837C69.2595 33.9626 68.736 32.6911 67.6889 31.644ZM42.6328 21.9955L38.9678 25.6605C38.6687 25.9596 38.2947 26.0344 37.9207 26.0344L34.2558 25.6605L33.1339 26.7824L34.4802 28.1287C35.0037 28.6522 35.0037 29.475 34.4802 29.9985L17.4271 47.0516C17.0531 47.4256 16.9035 48.0988 17.2027 48.5475L19.1473 52.362C19.3717 52.8856 19.2969 53.4839 18.923 53.8579L17.4271 55.3538C16.9035 55.8774 16.0808 55.8774 15.5572 55.3538L10.8452 50.6418C10.546 50.3426 10.3964 49.9686 10.4712 49.5946V37.4032C10.4712 37.104 10.6208 36.8796 10.8452 36.6552L25.9536 21.5468C26.4772 21.0232 27.2999 21.0232 27.8235 21.5468L29.1698 22.8931L30.2917 21.846L29.9925 18.181C29.9925 17.8071 30.1421 17.4331 30.3665 17.1339L34.0314 13.469C34.555 13.0202 35.3777 13.0202 35.8265 13.469L42.4832 20.1257C43.0067 20.6492 43.0067 21.472 42.4832 21.9955H42.6328Z" fill="#FFC800"/>
<path d="M189.754 40.021V37.0293H188.856C188.407 37.0293 188.183 36.7301 188.183 36.3561C188.183 35.9821 188.482 35.683 188.856 35.683H192.222C192.596 35.683 192.895 35.9821 192.895 36.3561C192.895 36.7301 192.596 37.0293 192.222 37.0293H191.324V40.021C191.324 40.395 190.95 40.769 190.577 40.769C190.203 40.769 189.829 40.4698 189.829 40.021H189.754ZM193.493 40.021V36.8797C193.493 35.9821 194.017 35.6082 194.615 35.6082C195.214 35.6082 195.588 35.9073 195.962 36.5805L196.784 38.0764L197.607 36.5805C197.981 35.9073 198.355 35.6082 198.953 35.6082C199.552 35.6082 200.001 35.9821 200.001 36.8797V40.021C200.001 40.395 199.627 40.769 199.253 40.769C198.879 40.769 198.505 40.395 198.505 40.021V37.6276L197.757 38.9739C197.458 39.5723 197.158 39.7966 196.71 39.7966C196.261 39.7966 195.962 39.4975 195.663 38.9739L194.989 37.6276V40.0958C194.989 40.4698 194.615 40.8438 194.241 40.8438C193.867 40.8438 193.493 40.5446 193.493 40.0958V40.021Z" fill="#00203F"/>
</svg>
