<svg width="24" height="24" viewBox="0 0 24 24" fill="none" xmlns="http://www.w3.org/2000/svg">
<path d="M21.9465 9.179C21.8175 8.801 21.4765 8.534 21.0785 8.503L15.3775 8.05L12.9105 2.589C12.7495 2.23 12.3925 2 11.9995 2C11.6065 2 11.2495 2.23 11.0885 2.588L8.62149 8.05L2.92049 8.503C2.52949 8.534 2.19249 8.791 2.05949 9.16C1.92649 9.529 2.02049 9.942 2.30149 10.216L6.51449 14.323L5.02449 20.775C4.93249 21.174 5.09349 21.589 5.43049 21.822C5.60249 21.94 5.80049 22 5.99949 22C6.19249 22 6.38649 21.944 6.55449 21.832L11.9995 18.202L17.4445 21.832C17.7925 22.064 18.2495 22.055 18.5895 21.808C18.9275 21.561 19.0765 21.128 18.9615 20.726L17.1325 14.326L21.6685 10.244C21.9655 9.976 22.0745 9.558 21.9465 9.179Z" fill="#373737"/>
</svg>
