<svg width="24" height="24" viewBox="0 0 24 24" fill="none" xmlns="http://www.w3.org/2000/svg">
<path d="M5.02474 20.775C4.93274 21.174 5.09274 21.589 5.43074 21.822C5.60274 21.94 5.80074 22 5.99974 22C6.19274 22 6.38674 21.944 6.55474 21.832L11.9997 18.202L17.4447 21.832C17.7927 22.064 18.2487 22.055 18.5897 21.808C18.9277 21.561 19.0767 21.128 18.9617 20.726L17.1327 14.326L21.6687 10.244C21.9657 9.977 22.0747 9.558 21.9467 9.18C21.8177 8.802 21.4767 8.535 21.0787 8.504L15.3777 8.05L12.9107 2.589C12.7497 2.23 12.3927 2 11.9997 2C11.6067 2 11.2497 2.23 11.0887 2.588L8.62174 8.05L2.92074 8.503C2.52874 8.534 2.19174 8.791 2.05974 9.16C1.92574 9.529 2.02174 9.942 2.30174 10.216L6.51574 14.323L5.02474 20.775ZM11.9997 5.429L14.0417 9.95L14.6297 9.997C14.6307 9.997 14.6307 9.997 14.6307 9.997L18.6027 10.312L15.3317 13.256C15.3307 13.257 15.3307 13.257 15.3307 13.258L14.8677 13.674L15.0387 14.271C15.0387 14.271 15.0387 14.273 15.0387 14.274L16.2917 18.659L11.9997 15.798V5.429Z" fill="#373737"/>
</svg>
