<svg width="16" height="17" viewBox="0 0 16 17" fill="none" xmlns="http://www.w3.org/2000/svg">
<g id="star">
<path id="Vector" d="M14.6312 6.61901C14.5452 6.36701 14.3178 6.18901 14.0525 6.16834L10.2518 5.86634L8.60716 2.22567C8.49982 1.98634 8.26182 1.83301 7.99982 1.83301C7.73782 1.83301 7.49982 1.98634 7.39249 2.22501L5.74782 5.86634L1.94716 6.16834C1.68649 6.18901 1.46182 6.36034 1.37316 6.60634C1.28449 6.85234 1.34716 7.12767 1.53449 7.31034L4.34316 10.0483L3.34982 14.3497C3.28849 14.6157 3.39582 14.8923 3.62049 15.0477C3.73516 15.1263 3.86716 15.1663 3.99982 15.1663C4.12849 15.1663 4.25782 15.129 4.36982 15.0543L7.99982 12.6343L11.6298 15.0543C11.8618 15.209 12.1665 15.203 12.3932 15.0383C12.6185 14.8737 12.7178 14.585 12.6412 14.317L11.4218 10.0503L14.4458 7.32901C14.6438 7.15034 14.7165 6.87167 14.6312 6.61901Z" fill="#FFC800"/>
</g>
</svg>
