<svg width="48" height="48" viewBox="0 0 48 48" fill="none" xmlns="http://www.w3.org/2000/svg">
<path fill-rule="evenodd" clip-rule="evenodd" d="M24 0C10.7542 0 0 10.7548 0 24C0 37.2452 10.7548 48 24 48C37.2452 48 48 37.2452 48 24C48 10.7548 37.2452 0 24 0ZM24 1.65519C36.3332 1.65519 46.3453 11.6668 46.3453 24.0005C46.3453 36.3342 36.3337 46.3459 24 46.3459C11.6663 46.3459 1.65466 36.3342 1.65466 24.0005C1.65466 11.6668 11.6663 1.65519 24 1.65519ZM24 4.96557C13.4936 4.96557 4.96504 13.4942 4.96504 24.0005C4.96504 34.5069 13.4936 43.0355 24 43.0355C34.5064 43.0355 43.035 34.5069 43.035 24.0005C43.035 13.4942 34.5064 4.96557 24 4.96557ZM24 6.62076C33.5916 6.62076 41.3792 14.4084 41.3792 24C41.3792 33.5916 33.5916 41.3792 24 41.3792C14.4084 41.3792 6.62076 33.5916 6.62076 24C6.62076 14.4084 14.4084 6.62076 24 6.62076ZM36.2897 24.5858C36.6125 24.261 36.6125 23.7375 36.2897 23.4148L24.5853 11.7103C24.2604 11.3876 23.737 11.3876 23.4142 11.7103L11.7098 23.4148C11.387 23.7396 11.387 24.2631 11.7098 24.5858L23.4142 36.2903C23.7391 36.613 24.2626 36.613 24.5853 36.2903L36.2897 24.5858ZM34.5332 24.0003L23.9998 34.5336L13.4664 24.0003L23.9998 13.4669L34.5332 24.0003Z" fill="#00203F"/>
</svg>
