<svg width="48" height="49" viewBox="0 0 48 49" fill="none" xmlns="http://www.w3.org/2000/svg">
<path d="M34.6447 15.5699C35.1182 15.0964 35.1182 14.3287 34.6447 13.8551C34.1712 13.3816 33.4035 13.3816 32.9299 13.8551L24 22.7849L15.0701 13.8551C14.5965 13.3816 13.8288 13.3816 13.3553 13.8551C12.8818 14.3287 12.8818 15.0964 13.3553 15.5699L22.2852 24.4996L13.3551 33.4295C12.8816 33.903 12.8816 34.6707 13.3551 35.1442C13.8286 35.6178 14.5964 35.6178 15.0699 35.1443L24 26.2143L32.9301 35.1443C33.4036 35.6178 34.1714 35.6178 34.6449 35.1442C35.1184 34.6707 35.1184 33.903 34.6449 33.4295L25.7148 24.4996L34.6447 15.5699Z" fill="#FD4C4F"/>
<circle cx="24" cy="24.5" r="23" stroke="#FD4C4F" stroke-width="2"/>
</svg>
