<svg width="50" height="65" viewBox="0 0 50 65" fill="none" xmlns="http://www.w3.org/2000/svg">
<path d="M49.1158 61.4331L49.1103 61.447V61.4498L49.1047 61.4636L49.0852 61.5026L49.0797 61.5109L49.0769 61.5165L49.0547 61.5498L49.0491 61.5554L49.0435 61.5637L49.038 61.5693L49.0324 61.5776L49.0269 61.5832L49.0157 61.5971L49.0102 61.6054L49.0046 61.611L48.9991 61.6221L48.9852 61.636L48.9741 61.6499L48.9657 61.661L48.9629 61.6638L48.9546 61.6749L48.9407 61.6888L48.9296 61.6971L48.9129 61.7138L48.9018 61.7221L48.899 61.7249L48.8879 61.7333L48.8851 61.736L48.874 61.7444L48.8712 61.7472L48.8601 61.7555L48.8573 61.7583L48.8462 61.7666L48.8434 61.7694L48.8323 61.7777L48.8295 61.7805L48.8184 61.7889L48.8156 61.7916L48.8045 61.7972L48.8017 61.8L48.7183 61.8417L48.7072 61.8444L48.7017 61.8472L48.6433 61.8667L48.6322 61.8695L48.6266 61.8722L48.6155 61.875H48.6099L48.5988 61.8778L48.5932 61.8806L48.5793 61.8834H48.5738L48.5599 61.8861H48.5571L48.5238 61.8917C45.5413 62.3587 42.6922 62.8173 39.9792 63.2648C37.3859 63.6929 34.9232 64.1181 32.6024 64.5295C32.38 64.5684 32.1632 64.4989 32.0076 64.3572H32.0048L31.9909 64.346C31.2043 63.7123 30.6901 62.8451 30.4816 61.9139C30.2981 61.0912 30.3537 60.2156 30.6706 59.3984C27.9577 55.2234 26.0843 53.161 24.4027 51.3099C22.9156 49.6728 21.5703 48.194 19.9275 45.5923L19.9109 45.559L19.8942 45.5312V45.5284L19.8858 45.5145V45.5117L19.8775 45.4978V45.4951L19.8719 45.4812L19.8664 45.4645C19.3744 44.3193 19.2521 43.3325 19.4522 42.5904C19.619 41.9733 19.9942 41.5147 20.553 41.2506C21.0477 41.0199 21.6787 40.9588 22.4208 41.0978C23.6911 41.3368 25.4005 42.1957 27.4546 43.844C27.1878 42.5404 26.9432 41.3146 26.7152 40.1638C26.3956 38.5406 26.087 36.9256 25.7896 35.3107C24.1858 34.4963 22.7099 33.6958 21.3673 32.9175C20.0832 32.1726 18.9158 31.4416 17.8678 30.73C12.317 34.2155 8.88713 35.7944 7.13026 34.7854C5.31242 33.7402 5.52923 30.2574 7.35263 23.6671C2.43839 19.3366 0.00353995 16.4461 0.584394 14.4281C1.17644 12.3795 4.69534 11.5512 11.6635 11.4122C13.9094 4.83577 15.7245 1.53352 17.7369 1.5143C19.7549 1.49485 21.5977 4.76639 23.8992 11.3261C25.4475 11.4123 26.9123 11.5346 28.2882 11.6958C29.8281 11.8737 31.2707 12.0989 32.616 12.3685H32.6215L32.6326 12.3712L32.641 12.374L32.6521 12.3768L32.6604 12.3796L32.7049 12.3935L32.7105 12.3963L32.7272 12.4018H32.7299L32.7438 12.4074L32.7549 12.4102L32.7605 12.4129C33.2719 12.5908 33.7 12.8882 34.0308 13.2552C34.4005 13.6665 34.6479 14.1668 34.759 14.6922C34.8702 15.2203 34.8452 15.7762 34.6729 16.2987C34.5172 16.7713 34.2392 17.216 33.8334 17.5912L33.8056 17.619C32.9051 18.4307 31.9656 19.3341 30.9927 20.3319C30.2561 21.0879 29.4945 21.894 28.719 22.7529C29.0359 22.9085 29.3389 23.1253 29.6113 23.4033C30.1338 23.9397 30.548 24.7097 30.7482 25.7325L30.7509 25.7464V25.7492C31.0428 26.8889 31.3652 28.2786 31.7127 29.9103C32.0073 31.2972 32.3325 32.9011 32.6828 34.7217L32.7495 34.6828C33.6 34.2047 34.4867 33.974 35.3095 34.0268C36.16 34.0852 36.9356 34.4354 37.5387 35.1163C38.0585 34.7717 38.5699 34.5215 39.0619 34.3659C39.7623 34.1463 40.435 34.1213 41.0493 34.2936C41.6719 34.4687 42.225 34.8439 42.6782 35.4193C42.8866 35.6833 43.0756 35.9919 43.2396 36.3393C43.6927 36.1114 44.1374 35.9724 44.5683 35.9224C45.5884 35.8084 46.4945 36.1698 47.2366 37.037C47.8926 37.7986 48.4096 38.9688 48.746 40.5532C49.4408 43.8414 49.3936 49.0863 48.2151 56.4411C48.8099 57.0581 49.2129 57.817 49.3908 58.6258C49.5965 59.5542 49.5159 60.5465 49.1128 61.461L49.1158 61.4331ZM39.2342 14.589C38.8451 14.6335 38.4893 14.3556 38.4448 13.9664C38.4004 13.5773 38.6783 13.2215 39.0675 13.177C39.8819 13.0797 40.7185 12.9713 41.5635 12.849C42.4585 12.7212 43.3424 12.585 44.218 12.4404C44.6044 12.3765 44.9685 12.6405 45.0324 13.0269C45.0963 13.4133 44.8323 13.7774 44.4459 13.8413C43.4925 13.997 42.5919 14.1387 41.7636 14.2555C40.8881 14.3805 40.0431 14.4917 39.2342 14.5862L39.2342 14.589ZM37.7194 9.30785C37.3831 9.51076 36.9467 9.40235 36.7438 9.06602C36.5408 8.7297 36.6493 8.29333 36.9856 8.09039C37.5609 7.74295 38.1669 7.36217 38.8006 6.95352C39.4372 6.54215 40.1265 6.08071 40.8658 5.57485C41.1883 5.35527 41.633 5.43865 41.8526 5.76109C42.0722 6.08351 41.9888 6.52823 41.6663 6.74782C40.9409 7.24536 40.2404 7.71235 39.5761 8.14314C38.9062 8.57674 38.2864 8.96878 37.7194 9.30785ZM33.803 4.98841C33.5751 5.30528 33.1303 5.37755 32.8135 5.14962C32.4966 4.9217 32.4243 4.47697 32.6523 4.16011C33.0247 3.64311 33.4028 3.08998 33.7864 2.50628C34.1588 1.93647 34.5118 1.3778 34.8371 0.83018C35.0372 0.49385 35.4736 0.382667 35.8099 0.580021C36.1463 0.78015 36.2574 1.21654 36.0601 1.55288C35.7043 2.14771 35.343 2.7286 34.9789 3.28455C34.6231 3.82657 34.231 4.39638 33.803 4.98841ZM25.4755 33.5238C25.3004 32.5564 25.1392 31.6337 24.9918 30.7609C24.7584 29.385 24.5527 28.1314 24.3831 27.0113C24.2886 26.6082 24.2441 26.2191 24.2469 25.855C24.2497 24.9572 24.5249 24.2039 24.9585 23.6369C25.406 23.0504 26.0203 22.6585 26.6874 22.4972C26.8125 22.4666 26.9459 22.4444 27.0765 22.4305C28.0827 21.2992 29.0528 20.2596 29.9784 19.3091C30.9679 18.2945 31.9213 17.3773 32.833 16.5545L32.8608 16.5267L32.8719 16.5184L32.8747 16.5156C33.0915 16.3155 33.2416 16.0736 33.325 15.8207C33.4195 15.5372 33.4306 15.2342 33.3722 14.9479C33.3138 14.6644 33.1776 14.392 32.9803 14.1724C32.808 13.9806 32.5828 13.825 32.3132 13.7277C31.0068 13.4664 29.6114 13.2496 28.1355 13.0773C26.6234 12.9022 25.0307 12.7715 23.363 12.6881L23.313 12.6826H23.3074L23.2629 12.6742H23.2546L23.2463 12.6715C23.1796 12.6576 23.1184 12.6325 23.06 12.602L23.0434 12.5936L23.0406 12.5908L22.9739 12.5464L22.9711 12.5436L22.96 12.5353L22.9572 12.5325L22.9461 12.5241L22.9433 12.5214L22.9183 12.4991L22.9072 12.4908L22.896 12.4797L22.8933 12.4741L22.8738 12.4546L22.871 12.4491L22.8627 12.4407L22.8516 12.4268L22.8488 12.4213L22.8432 12.413L22.8404 12.4074L22.8321 12.3991L22.8293 12.3935L22.8238 12.3852L22.821 12.3796L22.8154 12.3713L22.8099 12.3657L22.8043 12.3574L22.7987 12.3518L22.7821 12.3268L22.7376 12.2378L22.732 12.2212L22.7293 12.2184L22.7126 12.1684C20.5668 5.97549 19.0547 2.88166 17.7566 2.89589C16.453 2.90979 14.9632 6.04515 12.8563 12.2964L12.8479 12.3131L12.8396 12.3381L12.834 12.3465L12.8257 12.3715L12.7979 12.4271L12.7646 12.4827L12.7618 12.4854L12.7451 12.5105L12.7423 12.5132L12.734 12.5244L12.7229 12.5383L12.7201 12.541L12.6978 12.5661H12.6951L12.6839 12.5772H12.6812L12.645 12.6105L12.6339 12.6216L12.6061 12.6439L12.5644 12.6689H12.5616L12.5477 12.6772H12.545L12.5172 12.6939H12.5144L12.5005 12.7022H12.4977L12.4838 12.7106H12.481L12.4671 12.7161H12.4644L12.4505 12.7217H12.4477L12.4338 12.7273H12.431L12.4171 12.7328H12.4143L12.4004 12.7384H12.3977L12.3838 12.7439H12.381L12.3671 12.7495H12.3643L12.3504 12.7551H12.3448L12.3309 12.7578H12.3254L12.3115 12.7606H12.3059L12.292 12.7634H12.2865L12.2754 12.7662H12.2698L12.2587 12.769H12.2531L12.242 12.7717H12.2086L12.1558 12.7745H12.1225C5.56266 12.8774 2.31918 13.4194 1.92711 14.7703C1.52963 16.16 3.8978 18.7339 8.57587 22.8281L8.58977 22.8392L8.60089 22.8503H8.60367L8.62868 22.8725L8.6398 22.8837V22.8864L8.6676 22.9142L8.67594 22.9254L8.67872 22.9281L8.68705 22.9392L8.68983 22.942L8.69817 22.9531L8.70095 22.9587L8.70929 22.967L8.71207 22.9726L8.71763 22.9809L8.72041 22.9865L8.72597 22.9948L8.72875 23.0004L8.73431 23.0087L8.73987 23.0143L8.74543 23.0226L8.74821 23.031L8.75376 23.0393L8.75654 23.0477L8.77322 23.0727L8.776 23.081L8.78156 23.0893L8.78434 23.0977L8.78712 23.1032L8.7899 23.1116L8.79268 23.1171L8.79546 23.1255L8.79824 23.131L8.80102 23.1394L8.8038 23.1449L8.80658 23.1533L8.80936 23.1588L8.81769 23.1839L8.82047 23.1894L8.84827 23.2728V23.2978L8.85105 23.3062V23.3145L8.85383 23.3228V23.4646L8.85105 23.4785V23.4813L8.84827 23.4952V23.4979L8.84549 23.5118V23.5146L8.84271 23.5313L8.83437 23.5647V23.5674L8.82881 23.5813C7.10269 29.7186 6.68578 32.846 7.83098 33.5013C9.0373 34.1934 12.1699 32.598 17.4592 29.2541L17.4731 29.243C17.5621 29.1818 17.6621 29.1401 17.7678 29.1235L17.7733 29.1207H17.7844C17.954 29.0984 18.1347 29.1346 18.2875 29.2402C19.4105 30.0213 20.6752 30.8218 22.0733 31.6334C23.124 32.2449 24.2552 32.8648 25.4643 33.4957L25.4755 33.5238ZM38.2674 36.3089C38.3785 36.5952 38.4703 36.9065 38.5398 37.2456C38.6482 37.7737 38.7038 38.3825 38.6954 39.0635C38.6899 39.4554 38.3702 39.7667 37.9783 39.7639C37.5864 39.7584 37.2751 39.4387 37.2778 39.0468C37.2862 38.4742 37.2389 37.9656 37.15 37.5292C37.0638 37.1095 36.936 36.7537 36.7775 36.4646L36.7747 36.459L36.7692 36.4507L36.7636 36.4451L36.7553 36.4285L36.7497 36.4146L36.7469 36.4118L36.7386 36.3951C36.6663 36.2728 36.5885 36.1588 36.5051 36.0616C36.1632 35.653 35.7102 35.4417 35.2154 35.4111C34.665 35.375 34.0508 35.5418 33.4448 35.8837C33.2891 35.9726 33.1307 36.0754 32.9695 36.1894L33.5004 39.0329C33.5699 39.4165 33.3142 39.789 32.9306 39.8585C32.547 39.928 32.1745 39.6722 32.105 39.2887L31.5018 36.056V36.0532L31.4991 36.0366L31.4963 36.0254L31.4935 36.0199L31.4879 35.9865C31.071 33.7962 30.6819 31.8533 30.3233 30.1689C29.9703 28.5039 29.6534 27.1336 29.3811 26.0662C29.3699 26.0357 29.3616 26.0023 29.3533 25.9662C29.2087 25.2324 28.9336 24.7015 28.5945 24.354C28.2526 24.001 27.8384 23.8343 27.4354 23.8232H27.3798C27.263 23.8259 27.1407 23.8398 27.0212 23.8704C26.6627 23.9594 26.3263 24.1734 26.0817 24.4958C25.8232 24.8349 25.662 25.2936 25.6592 25.8551C25.6592 26.1052 25.6898 26.3832 25.7593 26.6778V26.6805L25.7621 26.6944L25.7649 26.7L25.7843 26.7889C25.9733 28.0259 26.1735 29.2739 26.3875 30.5302C26.6154 31.8672 26.8572 33.2459 27.1157 34.6579L27.1185 34.6746L27.1213 34.6885V34.694L27.124 34.7107C27.4076 36.259 27.7383 37.9851 28.1108 39.8724C28.4832 41.7681 28.8696 43.6804 29.2643 45.5844C29.3421 45.9679 29.0947 46.3432 28.7112 46.421C28.461 46.4711 28.2164 46.3849 28.0524 46.2126C25.5174 43.8749 23.5078 42.7298 22.1598 42.474C21.7178 42.3906 21.3787 42.4101 21.1508 42.5157C20.9895 42.5908 20.8756 42.7381 20.8228 42.9354C20.7032 43.3774 20.8089 44.0362 21.1563 44.8617C22.7129 47.3188 24.0137 48.7531 25.4536 50.3374C27.1602 52.2164 29.0642 54.3122 31.816 58.5368C36.0437 57.7891 41.0472 56.9608 46.8315 56.0546C47.96 48.964 48.01 43.9416 47.3513 40.8256C47.065 39.4803 46.6564 38.5214 46.1533 37.9377C45.7419 37.4568 45.2527 37.2539 44.7246 37.3123C44.4105 37.3484 44.0659 37.4707 43.7017 37.6764C43.7434 37.8515 43.7823 38.0322 43.8185 38.2212C43.888 38.6075 43.9436 39.0106 43.9797 39.4219C44.013 39.8139 43.724 40.1586 43.332 40.1919C42.9401 40.2252 42.5954 39.9361 42.5621 39.5442C42.5288 39.1495 42.4815 38.791 42.4231 38.4741C42.3648 38.1683 42.2953 37.8765 42.2147 37.6068L42.2091 37.5929V37.5902L42.2063 37.579L42.2008 37.5679L42.198 37.5568C42.0285 37.0203 41.8116 36.5895 41.5587 36.2699C41.3002 35.9391 40.9944 35.7251 40.6609 35.6333C40.3162 35.5388 39.9187 35.5583 39.4796 35.6973C39.0988 35.8168 38.6901 36.0225 38.2621 36.3116L38.2674 36.3089ZM47.2203 57.4226C41.4639 58.3232 36.3831 59.1681 31.9828 59.9465C31.7882 60.4829 31.7549 61.0527 31.8744 61.5864C31.9967 62.1312 32.2774 62.6427 32.6971 63.0485C34.804 62.676 37.1583 62.273 39.76 61.8422C42.2394 61.4308 44.9689 60.9916 47.9459 60.5274C48.1127 59.9937 48.1293 59.4322 48.0126 58.9042C47.8903 58.3566 47.6235 57.8424 47.2232 57.4227L47.2203 57.4226Z" fill="#868686"/>
</svg>
